<?xml version="1.0" encoding="UTF-8"?>
<!-- Created with Inkscape (http://www.inkscape.org/) -->
<svg width="200mm" height="200mm" version="1.1" viewBox="0 0 200 200" xmlns="http://www.w3.org/2000/svg"><path transform="scale(.26458)" d="m92.239 75.59c-36.444 0-62.003 29.341-62.003 65.785v397.56c0 36.444 25.559 65.785 62.003 65.785h571.43c36.444 0 62.003-29.341 62.003-65.785v-397.56c0-36.444-25.559-65.785-62.003-65.785zm72.28 215.43c27.137-5e-4 49.135 21.998 49.135 49.135-5.6e-4 27.136-21.999 49.133-49.135 49.133-27.135-5.8e-4 -49.132-21.998-49.133-49.133-5.1e-4 -27.136 21.997-49.134 49.133-49.135zm213.43 0c27.136 5.8e-4 49.133 21.999 49.133 49.135-5.6e-4 27.135-21.998 49.132-49.133 49.133-27.136 4.9e-4 -49.134-21.997-49.135-49.133-5.1e-4 -27.137 21.998-49.135 49.135-49.135zm213.43 0c27.136 5.9e-4 49.133 21.999 49.133 49.135-5.6e-4 27.135-21.998 49.132-49.133 49.133-27.136 5e-4 -49.134-21.997-49.135-49.133-5.1e-4 -27.137 21.998-49.135 49.135-49.135z" stroke-width="1.0354"/><path transform="scale(.26458)" d="m449.27 717.24-58.556-286.15 277.09 92.364-109.27 96.893z"/></svg>
