<?xml version="1.0" encoding="UTF-8" standalone="no"?>
<svg xmlns="http://www.w3.org/2000/svg" height="30" width="75" viewBox="0 0 175 75">
	<path d="M 121.13777,27.816289 C 110.60985,-11.323321 69.550985,-1.2875239 51.65353,10.755433 37.546124,20.249298 14.80583,27.816289 -6.25,17.780492 13.753037,35.844927 48.495155,24.80555 59.023071,16.776912 53.759112,33.837768 63.234237,43.873565 73.76215,48.891464 63.234237,33.837768 71.89871,22.72814 86.395648,24.80555 c 21.055822,3.010739 17.897462,51.182567 60.009102,50.178988 43.84877,-1.00358 46.32283,-60.214786 7.36955,-63.225525 28.42538,15.053697 18.82391,53.771803 -13.68629,40.14319 -26.31979,-11.039377 5.26397,-46.1646686 13.68629,-13.046536 10.52792,-16.057276 -5.26396,-25.089494 -15.79187,-24.085915 -8.42234,0.792828 -15.79187,5.017899 -16.84466,13.046537 z" fill="#ffefbd" id="path2513" style="stroke-width:1.02789" />
</svg>
