<?xml version="1.0" encoding="utf-8"?>
<!-- Generator: Adobe Illustrator 22.1.0, SVG Export Plug-In . SVG Version: 6.00 Build 0)  -->
<svg version="1.1" id="Layer_1" xmlns="http://www.w3.org/2000/svg" xmlns:xlink="http://www.w3.org/1999/xlink" x="0px" y="0px"
	 height="11.9" width="14" viewBox="0 0 11.9 14" style="enable-background:new 0 0 11.9 14;" xml:space="preserve">
<style type="text/css">
	.st0{fill:#FFFFFF;}
</style>
<path class="st0" d="M11.6,1.7L9.1,0.9l-3,8.9L4.3,0.5l-4,1.2C0.1,1.7,0,1.9,0,2.1v6.1C0,9,0.4,9.8,1,10.5c0.6,0.7,1.2,1.3,2,1.8
	C3.8,13,4.8,13.5,5.8,14c0.1,0,0.2,0,0.3,0c1-0.5,1.9-1,2.8-1.7c0.7-0.5,1.4-1.1,2-1.8c0.6-0.7,0.9-1.5,0.9-2.4V2.1
	C11.9,1.9,11.7,1.7,11.6,1.7z"/>
</svg>
