<svg height="36" width="36" viewBox="0 0 36 36" xmlns="http://www.w3.org/2000/svg" fill-rule="evenodd" clip-rule="evenodd" stroke-linejoin="round" stroke-miterlimit="2"><path d="M33.262 0h.938A1.8 1.8 0 0 1 36 1.8v15.677l-.955.84.955.538v11.093l-.964.441.964.157V34.2a1.8 1.8 0 0 1-1.8 1.8h-9.072l-.657-.467-.688.467H6.955l-.403-1.132L5.962 36H1.8A1.8 1.8 0 0 1 0 34.2V24.029l1.058-.33L0 23.19v-9.46l.619-.575-.619-.61V1.8A1.8 1.8 0 0 1 1.8 0h6.696l.403 1.326L13.812 0h17.79l-.394 1.764L33.262 0z" fill="#d56060"/></svg>