<svg 
 xmlns="http://www.w3.org/2000/svg"
 xmlns:xlink="http://www.w3.org/1999/xlink"
 width="17px" height="17px">
<defs>
<filter filterUnits="userSpaceOnUse" id="Filter_0" x="0.5px" y="0.5px" width="16px" height="16px"  >
    <feOffset in="SourceAlpha" dx="0" dy="0" />
    <feGaussianBlur result="blurOut" stdDeviation="1.414" />
    <feFlood flood-color="rgb(0, 0, 0)" result="floodOut" />
    <feComposite operator="atop" in="floodOut" in2="blurOut" />
    <feComponentTransfer><feFuncA type="linear" slope="0.52"/></feComponentTransfer>
    <feMerge>
    <feMergeNode/>
    <feMergeNode in="SourceGraphic"/>
  </feMerge>
</filter>

</defs>
<g filter="url(#Filter_0)">
<path fill-rule="evenodd"  stroke-width="1px" stroke="rgb(159, 114, 91)" fill="rgb(233, 215, 161)"
 d="M10.500,11.500 L6.500,11.500 C5.948,11.500 5.500,11.052 5.500,10.500 L5.500,6.500 C5.500,5.948 5.948,5.500 6.500,5.500 L10.500,5.500 C11.052,5.500 11.500,5.948 11.500,6.500 L11.500,10.500 C11.500,11.052 11.052,11.500 10.500,11.500 ZM10.500,7.500 C10.500,6.948 10.052,6.500 9.500,6.500 L7.500,6.500 C6.948,6.500 6.500,6.948 6.500,7.500 L6.500,9.500 C6.500,10.052 6.948,10.500 7.500,10.500 L9.500,10.500 C10.052,10.500 10.500,10.052 10.500,9.500 L10.500,7.500 Z"/>
</g>
<path fill-rule="evenodd"  opacity="0.2" fill="rgb(192, 184, 176)"
 d="M6.500,6.500 L10.500,6.500 L10.500,10.500 L6.500,10.500 L6.500,6.500 Z"/>
</svg>