<?xml version="1.0" encoding="iso-8859-1"?>
<!-- Generator: Adobe Illustrator 17.1.0, SVG Export Plug-In . SVG Version: 6.00 Build 0)  -->
<!DOCTYPE svg PUBLIC "-//W3C//DTD SVG 1.1//EN" "http://www.w3.org/Graphics/SVG/1.1/DTD/svg11.dtd">
<svg version="1.1" id="Capa_1" xmlns="http://www.w3.org/2000/svg" xmlns:xlink="http://www.w3.org/1999/xlink" x="0px" y="0px"
	 viewBox="0 0 466 466" style="enable-background:new 0 0 466 466;" xml:space="preserve">
<g>
	<path d="M464.928,423.82l-225-389.643c-1.429-2.475-4.07-3.999-6.928-3.999s-5.499,1.524-6.928,3.999l-225,389.643
		c-1.43,2.476-1.43,5.525,0,8.001c1.429,2.475,4.07,4,6.928,4h450c2.858,0,5.5-1.525,6.928-4
		C466.357,429.346,466.357,426.296,464.928,423.82z M21.857,419.821L233,54.177l211.143,365.645H21.857z"/>
	<path d="M114.082,288.382c-2.109,2.834-2.109,6.717,0,9.551c23.548,31.65,69.115,51.312,118.918,51.312
		s95.371-19.661,118.918-51.312c2.109-2.834,2.109-6.717,0-9.551C328.37,256.732,282.803,237.07,233,237.07
		S137.63,256.732,114.082,288.382z M130.759,293.157c13.616-15.71,34.001-27.566,57.81-34.17
		c-7.299,9.469-11.655,21.317-11.655,34.17s4.356,24.702,11.656,34.17C164.759,320.723,144.374,308.868,130.759,293.157z
		 M277.432,258.987c23.809,6.604,44.194,18.46,57.81,34.17c-13.616,15.71-34.001,27.566-57.81,34.17
		c7.299-9.469,11.656-21.317,11.656-34.17S284.731,268.456,277.432,258.987z M273.087,293.157c0,22.104-17.983,40.087-40.087,40.087
		s-40.087-17.983-40.087-40.087S210.896,253.07,233,253.07S273.087,271.054,273.087,293.157z"/>
</g>
<g>
</g>
<g>
</g>
<g>
</g>
<g>
</g>
<g>
</g>
<g>
</g>
<g>
</g>
<g>
</g>
<g>
</g>
<g>
</g>
<g>
</g>
<g>
</g>
<g>
</g>
<g>
</g>
<g>
</g>
</svg>
