<svg xmlns="http://www.w3.org/2000/svg" width="33" height="33" overflow="scroll">
	<style>
		.st1{stroke:#231f20;stroke-miterlimit:10}.st1,.st2{fill:none}
	</style>
	<g opacity=".25">
		<path class="st1" d="M.5 20v-7" />
		<path class="st2" d="M13 20v-7" />
		<path class="st1" d="M13 .5h7" />
		<path class="st2" d="M13 13h7" />
		<path class="st1" d="M32.5 13v7" />
		<path class="st2" d="M20 13v7" />
		<path class="st1" d="M20 32.5h-7" />
		<path class="st2" d="M20 20h-7" />
		<g>
			<path class="st1" d="M.5.5h3.1v3.1H.5zM3.6 3.6h3.1v3.1H3.6zM6.8 3.6h3.1v3.1H6.8zM3.6 6.8h3.1v3.1H3.6zM3.6 6.8H.5V13M13 .5H6.8v3.1" />
		</g>
		<g>
			<path class="st1" d="M29.4.5h3.1v3.1h-3.1zM26.3 3.6h3.1v3.1h-3.1zM26.3 6.8h3.1v3.1h-3.1zM23.1 3.6h3.1v3.1h-3.1zM26.3 3.6V.5H20" />
			<path class="st1" d="M32.5 13V6.8h-3.1" />
		</g>
		<g>
			<path class="st1" d="M29.4 29.4h3.1v3.1h-3.1z" />
			<path class="st1" d="M26.3 26.3h3.1v3.1h-3.1zM23.1 26.3h3.1v3.1h-3.1zM26.3 23.1h3.1v3.1h-3.1z" />
			<path class="st1" d="M29.4 26.3h3.1V20M20 32.5h6.3v-3.1" />
		</g>
		<g>
			<path class="st1" d="M.5 29.4h3.1v3.1H.5zM3.6 26.3h3.1v3.1H3.6zM3.6 23.1h3.1v3.1H3.6zM6.8 26.3h3.1v3.1H6.8z" />
			<path class="st1" d="M6.8 29.4v3.1H13M.5 20v6.3h3.1" />
		</g>
	</g>
</svg>
