<svg width="46" height="53" viewBox="0 0 46 53" fill="none" xmlns="http://www.w3.org/2000/svg" preserveAspectRatio="none">
<path d="M5.36439 5.9598C6.56208 4.67325 7.34546 2.9521 7.99117 0.5H37.6812C38.5721 2.64556 39.4629 4.23036 40.6779 5.51784C41.8959 6.80846 43.4106 7.76971 45.5 8.71609V39.7387C45.4946 39.7488 45.4887 39.7597 45.4824 39.7713C45.4331 39.8627 45.3576 39.9987 45.2553 40.1731C45.0508 40.5219 44.7394 41.0236 44.3161 41.6273C43.4689 42.8352 42.1758 44.4478 40.3963 46.0602C36.8406 49.2819 31.348 52.5 23.5702 52.5C15.7892 52.5 10.0065 49.2791 6.15985 46.0479C4.23598 44.4318 2.79971 42.8156 1.84547 41.6049C1.36857 40.9998 1.0127 40.4967 0.777118 40.1468C0.659346 39.9718 0.571692 39.8352 0.514059 39.7433C0.509155 39.7355 0.504469 39.728 0.5 39.7209V8.7538C2.60518 8.04705 4.16889 7.24399 5.36439 5.9598Z" fill="url(#paint0_linear_3066_65843)" fill-opacity="0.04" stroke="#AEAAA7"/>
<defs>
<linearGradient id="paint0_linear_3066_65843" x1="4.87879" y1="4.95535" x2="43.9392" y2="43.0142" gradientUnits="userSpaceOnUse">
<stop stop-color="white"/>
<stop offset="0.5" stop-color="white"/>
<stop offset="0.5001"/>
</linearGradient>
</defs>
</svg>
