<!-- Generator: Adobe Illustrator 22.1.0, SVG Export Plug-In  -->
<svg version="1.1"
	 xmlns="http://www.w3.org/2000/svg" xmlns:xlink="http://www.w3.org/1999/xlink" xmlns:a="http://ns.adobe.com/AdobeSVGViewerExtensions/3.0/"
	 x="0px" y="0px" width="33px" height="33px" viewBox="0 0 33 33" style="overflow:scroll;enable-background:new 0 0 33 33;"
	 xml:space="preserve">
<style type="text/css">
	.st0{opacity:0.25;}
	.st1{fill:none;stroke:#231F20;stroke-miterlimit:10;}
	.st2{fill:none;}
</style>
<defs>
</defs>
<g class="st0">
	<g>
		<g>
			<g>
				<line class="st1" x1="0.5" y1="20" x2="0.5" y2="13"/>
				<line class="st2" x1="13" y1="20" x2="13" y2="13"/>
			</g>
			<g>
				<line class="st1" x1="13" y1="0.5" x2="20" y2="0.5"/>
				<line class="st2" x1="13" y1="13" x2="20" y2="13"/>
			</g>
			<g>
				<line class="st1" x1="32.5" y1="13" x2="32.5" y2="20"/>
				<line class="st2" x1="20" y1="13" x2="20" y2="20"/>
			</g>
			<g>
				<line class="st1" x1="20" y1="32.5" x2="13" y2="32.5"/>
				<line class="st2" x1="20" y1="20" x2="13" y2="20"/>
			</g>
			<g>
				<rect x="0.5" y="0.5" class="st1" width="3.1" height="3.1"/>
				<rect x="3.6" y="3.6" class="st1" width="3.1" height="3.1"/>
				<rect x="6.8" y="3.6" class="st1" width="3.1" height="3.1"/>
				<rect x="3.6" y="6.8" class="st1" width="3.1" height="3.1"/>
				<polyline class="st1" points="3.6,6.8 0.5,6.8 0.5,13 				"/>
				<polyline class="st1" points="13,0.5 6.8,0.5 6.8,3.6 				"/>
			</g>
			<g>
				<rect x="29.4" y="0.5" class="st1" width="3.1" height="3.1"/>
				<rect x="26.3" y="3.6" class="st1" width="3.1" height="3.1"/>
				<rect x="26.3" y="6.8" class="st1" width="3.1" height="3.1"/>
				<rect x="23.1" y="3.6" class="st1" width="3.1" height="3.1"/>
				<polyline class="st1" points="26.3,3.6 26.3,0.5 20,0.5 				"/>
				<polyline class="st1" points="32.5,13 32.5,6.8 29.4,6.8 				"/>
			</g>
			<g>
				<rect x="29.4" y="29.4" class="st1" width="3.1" height="3.1"/>
				<rect x="26.3" y="26.3" class="st1" width="3.1" height="3.1"/>
				<rect x="23.1" y="26.3" class="st1" width="3.1" height="3.1"/>
				<rect x="26.3" y="23.1" class="st1" width="3.1" height="3.1"/>
				<polyline class="st1" points="29.4,26.3 32.5,26.3 32.5,20 				"/>
				<polyline class="st1" points="20,32.5 26.3,32.5 26.3,29.4 				"/>
			</g>
			<g>
				<rect x="0.5" y="29.4" class="st1" width="3.1" height="3.1"/>
				<rect x="3.6" y="26.3" class="st1" width="3.1" height="3.1"/>
				<rect x="3.6" y="23.1" class="st1" width="3.1" height="3.1"/>
				<rect x="6.8" y="26.3" class="st1" width="3.1" height="3.1"/>
				<polyline class="st1" points="6.8,29.4 6.8,32.5 13,32.5 				"/>
				<polyline class="st1" points="0.5,20 0.5,26.3 3.6,26.3 				"/>
			</g>
		</g>
	</g>
</g>
</svg>
