<svg xmlns="http://www.w3.org/2000/svg" viewBox="0 0 360.94 41.48"><defs><style>.cls-1{fill:#5b0b0c;}</style></defs><title>stroke2</title><g id="Layer_2" data-name="Layer 2"><g id="Layer_1-2" data-name="Layer 1"><path class="cls-1" d="M360.7,24.38a4.06,4.06,0,0,0-1.26-1.84c-.85-.7-.93-1-.42-1.31.71-.46.57-1.56-.75-5.68-.46-1.44-1-2.33-1.49-2.33s-.66-.35-.39-1.49.15-1.56-.4-1.76a2.28,2.28,0,0,1-1.06-1.51c-.44-1.76-1.72-3.07-4.39-4.53-1.29-.7-2.33-1.56-2.33-1.91,0-.85-.82-.88-1.15-.05-.19.46-.25.44-.28-.05-.06-.84-1-.75-1,.1a1.06,1.06,0,0,1-.65.94c-.84.32-5.33-.59-6.14-1.24s-4.65.5-5.23,1.34S311,3.6,310.5,2.81c-.24-.38-.91-.47-1.91-.25s-1.53.16-1.53-.2c0-.77-1.49-.7-2.43.12s-4.26,1.38-4.86.83-47.55-1.53-50.52-1c-.25,0-7.07.06-15.2,0-12.74,0-14.75-.15-14.75-.79,0-.94-1.2-.94-2,0s-6,1-8.82-.07c-2-.77-2.27-.77-3.59,0s-2.36.77-8.26.52c-6.74-.29-9.45-.47-9.68-.64-.07-.06-10.3-.21-22.69-.34-47-.47-60.52-.69-61-1a4,4,0,0,0-2.13.2C99.33.83,83.7,1.36,73,1.24c-12.87-.15-15.81-.12-37.18.36C9.63,2.2,8.8,2.18,7.65,1.13,6.05-.32,4.36.78,3.46,3.85,3,5.59,2.86,6.68,3.19,7.07s.24.69-.3.9-.7.59-.47,1.34c.18.59.11,1.17-.17,1.36s-.74,2.08-1,4.26c-.46,3.37-.43,4,.2,4.37a1.55,1.55,0,0,1,.75,1.16c0,.56-.28.66-1.12.4s-1-.26-.45.47.55,1,.08,1.53-.32.68,1.11.45c1-.16,1.86,0,2.06.27.36.58-1.49,1.7-2.13,1.31S.4,25.52,0,27c-.29,1.19,1.35,3.44,1.89,2.58a.86.86,0,0,1,1-.17c.4.15.61.45.48.67s.42.54,1.21.72A2.51,2.51,0,0,1,6.34,32c.21.69.84.85,3,.82a6.72,6.72,0,0,1,3,.34c.43.69,3.68.45,4-.29.2-.52.94-.47,3.81.29a42.79,42.79,0,0,0,7.34,1.12,14.36,14.36,0,0,1,5.8,1.2c2.33,1.17,3.62,1.31,4.46.46a.78.78,0,0,1,1.19,0,4.45,4.45,0,0,0,1.89.7c.84.12,1.21.45,1.16,1s.32.9,1,.94c2.78.2,3.87.18,4-.07a3.81,3.81,0,0,1,1.8-.13c.91.07,3.35.23,5.38.35a41.24,41.24,0,0,1,4.81.5c.6.14,1.24,0,1.42-.28s1.36-.43,3.44-.21c5.65.6,11.31.76,11.85.32,1-.77,3.47-.84,11.11-.28,4.91.36,5.11.33,5.38-.64s.79-1.06,4.06-1.29c2.08-.15,4.86-.28,6.15-.28,1.88,0,2.61-.25,3.64-1.29,1.19-1.19,2.69-1.68,2.7-.89s5.78.65,7.22-.1a4.67,4.67,0,0,1,4.91,0c1.14.86,3.22,1,3.22.24,0-.27.69-.73,1.54-1,1.19-.4,1.39-.64.91-1.09s-.68-.39-.84,0a1.32,1.32,0,0,1-1.16.62c-.5,0-1,.24-1,.5,0,.72-1.68.57-2.77-.24a6.22,6.22,0,0,0-3-.73,3.72,3.72,0,0,1-2.9-1c-.84-.94-.82-1,1-1.31,1.24-.23,2-.16,2.07.2.27.82,1.65.7,2.69-.24a4.36,4.36,0,0,1,2-.93,3.35,3.35,0,0,0,1.11-.23c0-.17,1.84-.45,6-.93,3.13-.36,3.31-.44,1.84-.8-1.89-.45-2.43-1.1-1.59-1.88.5-.46.69-.46.84,0s.6.32,1.54-.34c1.54-1.07,6.05-1.86,6.05-1.05,0,.3-.89.68-2,.86-2,.31-2.65.91-1.1,1,.47,0,3,.15,5.56.25a26.9,26.9,0,0,1,5.25.51c.56.36,3.08.7,8.53,1.17,2.43.21,3.31.11,4-.48,1-.94,5.05-1.68,5.05-.93,0,.27-.59.64-1.34.83-2.2.55-.59,1.18,3.38,1.32,2.77.09,4.08-.08,5-.66a8.49,8.49,0,0,1,4.16-.8,31,31,0,0,0,3.45-.12c.48-.12,2-.3,5-.58,1.29-.12,1.47,0,1.36,1s.12,1.11,1.36,1.11c.85,0,1.49-.21,1.49-.49s-.44-.5-1-.5c-2.05,0-.79-1.59,1.74-2.2,2.08-.5,10.63-.76,10.89-.33s1.9.54,5.86.65a54.16,54.16,0,0,0,6.05-.57,63.27,63.27,0,0,1,6.69-.62,4.35,4.35,0,0,0,2.61-.57c.22-.35.51-.38.74-.08A5.49,5.49,0,0,0,222.6,25c.84.47,1.19.45,1.64-.1.67-.79,3.94-1.95,4.34-1.53.15.15,0,.62-.28,1-.48.56-.1.64,2.28.45a9.29,9.29,0,0,0,3.35-.69c.72-.68,3-.51,5.2.38,1.59.65,2.3.71,3.25.28a5.8,5.8,0,0,1,3.6,0c3.91.82,9.11,1.46,9.56,1.18a30.63,30.63,0,0,1,7.14-.76c3.67.37,7.29.11,8.08-.58s1.24-.72,3.08-.06a11.1,11.1,0,0,0,2.48.35c1.34.06,1.72.28,1.67,1-.08,1,1,1.09,1.83.09.33-.39.72-.65.84-.54a3.37,3.37,0,0,0,1.61-.2,3.56,3.56,0,0,1,2.75.32c.94.5,1.52.57,1.86.23.64-.65,5-.74,4.57-.1a4.27,4.27,0,0,1-2.09.84,6,6,0,0,0-2.68,1.24c-.71.71-1.46.85-3.64.69a12.9,12.9,0,0,0-4.24.33c-2.19.76-1.49,1,1.14.44,2-.45,2.51-.39,4.06.47a9.25,9.25,0,0,0,4.27,1,7.86,7.86,0,0,1,3.69.8c1,.65,1.35.68,2,.2a2.41,2.41,0,0,1,1.83-.33,2.23,2.23,0,0,0,1.61-.14c.29-.24,1.71-.17,3.2.14,1.74.37,2.74.4,2.84.08.22-.66,8.32-.5,10.6.2,2.63.81,5.28.69,5.64-.25.23-.6.48-.65,1-.22a1.76,1.76,0,0,0,1.12.47,2.58,2.58,0,0,1,1.16.15c4,1.32,4.19,1.35,4.55.74.28-.46.71-.39,1.9.32,1.44.86,1.62.86,2.82.08,1-.69,1.37-.72,1.69-.2a.71.71,0,0,1-.12,1c-.29.18.44.48,1.63.67,1.34.22,2.22.14,2.33-.2.21-.64,2.4-.64,2.8,0,.16.28,1,.5,1.91.5a3.78,3.78,0,0,1,2.18.57c.44.43.87.38,1.81-.24,1.34-.89,5.5-1.15,6-.38.33.53,2.26.1,2.26-.49s-2.08-2.43-2.77-2.43c-.95,0-2.27-2.38-1.93-3.47.39-1.24,1.73-1.24,1.73,0a1.5,1.5,0,0,0,1,1.26,2.92,2.92,0,0,1,1.49,1.54c.25.64.72,1.06,1,.89s.36-.52-.05-1a1,1,0,0,1,.77-1.68,1.17,1.17,0,0,0,.93-.75c.29-.77,1.74-.49,2.36.45.22.33.58.29,1.08-.13.71-.6.88-2.2.44-4.28Zm-4.56-.25a.5.5,0,1,1,.5-.5.47.47,0,0,1-.5.5ZM353.31,9.64c-1-.2-1.49-2.37-.49-2.37s1.34.5,1.34,1.59c0,.64-.27.89-.85.78ZM341.37,31.07a1.65,1.65,0,0,1-.92-.52c-.37-.37-.7-.3-1.14.25a1.93,1.93,0,0,1-1.22.77c-.89,0-2.43-1.83-2-2.43s4.38-.7,5.13.05.82,1.88.2,1.88Zm-14.78,0c-.69,0-1.19-.29-1.19-.69,0-1,.6-1.29,1.89-.95s.84,1.64-.7,1.64Zm-9.12-23.3a4.26,4.26,0,0,0-2.28.49C314.52,8.93,312,7.92,312,7c0-.48.87-.6,3.5-.49,1.93.08,3.61,0,3.74-.25s.6-.26,1-.09c1.29.49-.69,1.63-2.82,1.63Zm-23.2,21.81c-.37,0-.59-.37-.5-.86s.69-.92,1.88-1l1.74-.15-1.24,1a4.29,4.29,0,0,1-1.88,1Zm1.11-24.29c-.45,0-.64-.21-.47-.5a1,1,0,0,1,.77-.49.46.46,0,0,1,.47.49c0,.29-.32.5-.77.5ZM295.63,27a.74.74,0,0,1-.52-.65.78.78,0,0,1,.52-.66c.27-.11.52.19.52.64s-.25.76-.52.67Zm-4,1.53c-1.24.46-3.07-.21-2.61-1s3.7-.55,3.7.35a2.66,2.66,0,0,1-1.09.61Zm-6.6-21a1.21,1.21,0,0,1-1.11-.62c-.14-.39.27-.62,1.11-.62s1.26.23,1.12.62a1.22,1.22,0,0,1-1.12.62Zm-4.71.37c-.39-.35,1.19-1.08,1.69-.77.28.17.07.45-.47.65s-1.08.25-1.22.12Zm-5.95-.37a3,3,0,0,1-1.83-.17A4.69,4.69,0,0,0,270,7.12c-2.86.43-1.73-.67,1.24-1.21,1.93-.36,3-.37,3.42,0,.91.74.79,1.27-.35,1.64ZM244.2,6.08c-.54-.54.34-.93,1.23-.54s.87.4,0,.62a1.61,1.61,0,0,1-1.21-.08ZM176.32,25.62c-.95,0-1.19-.16-.82-.52a1.27,1.27,0,0,1,1.31-.21c1.21.48,1,.73-.49.73Zm-4.91-11.7a10.78,10.78,0,0,1-3,.12c-.12-.12.59-.62,1.59-1.09,1.38-.67,2.08-.74,3-.32s1.22.4,1.46-.2a.63.63,0,0,1,.9-.38c1,.6-.9,1.51-3.87,1.87Zm-1.56,10.75c-.75.3-1.79.78-2.31,1s-1.06.3-1.31-.13a1,1,0,0,0-1.17-.31c-1.14.44-1.57-.7-.54-1.45s6.69-1,6.69-.2c0,.27-.62.75-1.36,1Zm-1.47-17.4c-1,0-1.19-.15-.76-.57A1.36,1.36,0,0,1,169,6.44c1.16.45.89.83-.6.83ZM98.06,30.08c-.45,0-.65-.21-.47-.5a1,1,0,0,1,.76-.49.45.45,0,0,1,.47.49c0,.29-.32.5-.76.5Zm-7.42,3.47a.75.75,0,1,1,.75-.74.77.77,0,0,1-.75.74Zm-1.48-3.32c0,.45-.8.36-1.74-.2-.64-.39-.64-.51,0-.94,1.09-.73,2.64-.66,2.15.1a2.58,2.58,0,0,0-.41,1Z"/><path class="cls-1" d="M357.26,37.89a1.18,1.18,0,0,0-1.1-.87A1.33,1.33,0,0,1,355,36.4c-.14-.34-.27,0-.3.74s-.27,1.37-.54,1.37a.47.47,0,0,0-.5.49c0,.6,3.27.73,3.57.15a2.55,2.55,0,0,0,0-1.26Z"/><path class="cls-1" d="M252.92,28.51c-2.78-.2-3.13-.19-3.62.1a7.94,7.94,0,0,1-2.23.4,4.62,4.62,0,0,0-2.23.62c-.55.55,3.32.62,6.89.14,2.38-.32,3.13-1.12,1.19-1.26Z"/><path class="cls-1" d="M243.74,29.38c-.15-.15-.62,0-1,.25a1.57,1.57,0,0,1-1.29.32,2.8,2.8,0,0,0-1.61.18c-.72.29-.35.4,1.34.41,2.18,0,3.22-.46,2.52-1.16Z"/><path class="cls-1" d="M236.21,30.17c-1.29.09-2.28.44-2.43.85s.15.62,1.68.34c2.88-.53,3.41-1.37.75-1.19Z"/><path class="cls-1" d="M232.24,30.57c-.7-.65-1-.64-2.53.14-1.88.95-3.8,1.12-4.06.36-.09-.26-1.09-.31-2.38-.12-2.08.3-2.13.34-.75.62s10.11.26,10.36-.05c.09-.12-.19-.53-.64-.95Z"/><path class="cls-1" d="M218.76,26.63c-.6.33-1,.66-.85.77.35.33,1.89-.4,1.89-.89,0-.26-.45-.2-1,.12Z"/><path class="cls-1" d="M216.67,27.1a1.34,1.34,0,0,0-1.06.45c-.4.67-2.75.35-3.24-.45s-2-.34-2,.5c0,.3.23.4.52.22s.92,0,1.41.47a2.51,2.51,0,0,0,2.43.49c1.74-.34,3.27-1.68,1.93-1.68Z"/><path class="cls-1" d="M210,39.84c-.17-.17-.74-.05-1.34.28a6.33,6.33,0,0,1-2.85.44,3.25,3.25,0,0,0-2.11.35c-.16.27.8.45,2.19.42s2.47-.2,2.47-.39.45-.24,1-.1c.94.25,1.32-.34.64-1Z"/><path class="cls-1" d="M209.19,28.1a1.36,1.36,0,0,0-1,.49c-.16.27,0,.5.44.5a1.32,1.32,0,0,0,1-.5c.16-.26,0-.49-.44-.49Z"/><path class="cls-1" d="M207.9,34a.5.5,0,0,0,0,1,.5.5,0,0,0,0-1Z"/><path class="cls-1" d="M206.19,29.09a2.1,2.1,0,0,0-1.51.49c-.18.3.32.5,1.21.5s1.51-.22,1.51-.5-.57-.49-1.21-.49Z"/><path class="cls-1" d="M206.11,27.46c-.61-.6-6.39-.41-7,.24-.46.46-.59.4-.59-.3s-.17-.76-.6-.42c-.68.55-2.08.51-3.47-.1-.53-.24-1.88.17-3.72,1.13a25.44,25.44,0,0,1-9.56,2.68c-1.44.11-1.72,0-1.6-.71.19-1.11-.34-1.08-1.87.09a3.2,3.2,0,0,1-2.61.68c-.79-.16-1.36-.07-1.36.22,0,1.26,9.42.8,14.13-.68,2-.64,2.89-.71,3.37-.29s.78.44,1.22,0,.76-.4,1.36.08.94.49,1.39.05c.83-.83,1.86-.7,1.52.2-.18.46,0,.74.51.74a.74.74,0,0,0,.79-.72c0-.46.28-.61.77-.42s.86,0,1-.72c.24-.88.67-1,3.25-1,3.07,0,3.64-.15,3.07-.71Z"/><path class="cls-1" d="M205.67,34.22a1.61,1.61,0,0,0-1.34.17c-.94.71-6,.75-6.48,0-.35-.49-.52-.5-.71,0a1.12,1.12,0,0,1-1,.62c-.39,0-.58.21-.42.47a3.63,3.63,0,0,0,2.13.49c6.85.1,8.53-.1,8.53-1,0-.27-.35-.63-.74-.77Z"/><path class="cls-1" d="M202.94,30.57a.5.5,0,0,0-.49.53c0,.29.21.39.49.22s.5-.39.5-.52-.2-.23-.5-.23Z"/><path class="cls-1" d="M195.5,40.49A.49.49,0,0,0,195,41c0,.3.21.39.49.22s.5-.38.5-.52-.2-.22-.5-.22Z"/><path class="cls-1" d="M193.52,35.28c-.3.18-.49.39-.49.53s.19.22.49.22a.5.5,0,0,0,.5-.52c0-.3-.22-.4-.5-.23Z"/><path class="cls-1" d="M190,34.86c-1.19-.31-4.78.52-5.6,1.29q-.48.47.57.15a19.85,19.85,0,0,1,3.59-.43c2.68-.11,3.28-.53,1.44-1Z"/><path class="cls-1" d="M185.09,40.49a.5.5,0,0,0,0,1,.5.5,0,1,0,0-1Z"/><path class="cls-1" d="M183.11,28.34c-.28-.17-.5-.07-.5.23a.51.51,0,0,0,.5.52c.3,0,.5-.09.5-.23s-.2-.34-.5-.52Z"/><path class="cls-1" d="M171.16,30.08a3,3,0,0,0-1.83.59c-.47.47-.8.48-1.49,0-1-.6-3.57-.32-3.57.4,0,.25.54.47,1.24.5a21.23,21.23,0,0,0,3.85-.06,5.21,5.21,0,0,1,1.06-.27c1.58-.29,2.15-1.21.74-1.21Z"/><path class="cls-1" d="M161.94,30.41c-1.24-.41-3.28.34-2.08.76a4,4,0,0,0,1.93-.07c1.24-.33,1.24-.33.15-.69Z"/><path class="cls-1" d="M152.87,30.57c-1.64,0-3,.23-3,.5a.49.49,0,0,0,.4.54c3.91.39,5.55.21,5.55-.59,0-.24-1.34-.45-3-.45Z"/><path class="cls-1" d="M145.43,30.08a.5.5,0,1,0,.5.49.47.47,0,0,0-.5-.49Z"/><path class="cls-1" d="M142.7,31.57c-.39,0-.74.09-.74.19s.35.33.74.48.75,0,.75-.2-.35-.47-.75-.47Z"/><path class="cls-1" d="M141.74,28a2.32,2.32,0,0,0-1.69.25c-.3.3-.92.18-1.71-.34-1.33-.88-2.51-.58-3.79,1a2.52,2.52,0,0,1-1.76.74c-2.11,0-1.74.89.44,1.07,1.19.09,2.08,0,2-.2s.52-.37,1.46-.37c3.18,0,6.3-.62,6.3-1.24,0-.34-.57-.75-1.21-.87Z"/><path class="cls-1" d="M129.22,30.44a2.34,2.34,0,0,0-1.39.18c-.85.34-.79.4.4.42s1.7-.2,1-.6Z"/></g></g></svg>