<?xml version="1.0" encoding="UTF-8"?>
<svg version="1.1" viewBox="0 0 380.29 42.14" xmlns="http://www.w3.org/2000/svg" xmlns:cc="http://creativecommons.org/ns#" xmlns:dc="http://purl.org/dc/elements/1.1/" xmlns:rdf="http://www.w3.org/1999/02/22-rdf-syntax-ns#"><defs><style>.cls-1{fill:#5b0b0c;}</style></defs><title>Asset 2</title><g data-name="Layer 2"><g data-name="Layer 1"><path class="cls-1" d="m379.63 5.75c-0.63-1.86-1.63-2.41-2.14-1.17-0.16 0.43-0.55 0.55-1.11 0.37-0.74-0.24-0.82-0.15-0.58 0.63 0.46 1.47-0.18 1-0.84-0.56l-0.61-1.47-3.85 0.21c-3.2 0.18-4 0.1-4.56-0.5-0.39-0.38-0.88-0.61-1.08-0.49-1.5774 0.21206-3.1686 0.30566-4.76 0.28-1.5361-0.065617-3.0744 0.058656-4.58 0.37-0.27 0.44-9 0.43-9.58 0-0.55294-0.23394-1.1771-0.23394-1.73 0-0.69 0.22-8.43 0.53-17.26 0.67s-16.58 0.3-17.29 0.34c-1.1468-0.00182-2.2889-0.14626-3.4-0.43-1.0532-0.36274-2.1941-0.38374-3.26-0.06-1 0.4-4.58 0.5-12.41 0.35-3.083 0.025888-6.1604 0.26647-9.21 0.72-1.95 0.23-2.25 0.17-2.25-0.47s-0.14-0.62-0.6-0.26c-0.53044 0.32655-1.1996 0.32655-1.73 0-1.08-0.4-6.62-0.59-13.11-0.45-2.2 0-2.72-0.07-2.72-0.59 0-0.78-0.67-0.91-1.1-0.22s-12 0.26-12.22-0.39c-0.0729-0.28096-0.31153-0.48783-0.6-0.52-0.25 0-0.33 0.26-0.2 0.61s-0.19 0.68-1.14 0.86c-1.95 0.36-22.3-0.16-24.09-0.62-1.95-0.5-7.92-0.65-8.61-0.22-0.21619 0.17984-0.51816 0.21514-0.77 0.09-0.14-0.13-0.61-0.06-1 0.15s-7.85 0.51-16.5 0.67-16.01 0.35-16.37 0.35c-2.85 0.16-4.56-0.59-2.63-1.16 0.41-0.12 0.26-0.17-0.35-0.13s-1 0.3-1 0.57c0.13 0.73-1.78 1-9.73 1.31-5.11 0.21-7 0.15-7-0.21s0.32-0.5 0.76-0.5c0.47931-0.010988 0.94771-0.14531 1.36-0.39 0.4-0.25-0.15-0.39-1.62-0.41-1.21 0-2.13 0.14-2 0.33 0.37 0.59-0.94 1.41-2 1.26-0.69-0.1-1-0.37-0.86-0.9s-0.2-0.74-2.36-0.67c-1.77 0.07-2.73 0.33-3.33 0.93-0.75 0.76-1.27 0.82-5 0.61-2.3-0.13-6.66-0.09-9.77 0.09-1.9953 0.17195-4.0001 0.20536-6 0.1-0.22-0.12 0.17-0.46 0.86-0.75l1.25-0.54h-1.14c-0.62257-0.033055-1.2321 0.18694-1.69 0.61-0.64 0.78-8 1-7.55 0.21 0.15-0.24 0.07-0.43-0.19-0.43-0.24525-0.01142-0.45027 0.18448-0.45 0.43 0 0.24-0.39 0.44-0.87 0.44s-0.86-0.2-0.86-0.44-0.8-0.43-1.75-0.43-1.65-0.17-1.5-0.43c0.34413-0.32244 0.79841-0.5013 1.27-0.5 0.78 0 1.06-0.23 1.06-0.87 0-1.27-1-1.08-2.32 0.43-0.49767 0.68877-1.2503 1.1497-2.09 1.28h-1l1.13-0.47 1-0.47-1-0.2c-0.61519-0.087747-1.2396 0.078289-1.73 0.46-0.73989 0.51611-1.5663 0.89544-2.44 1.12-0.9105 0.23991-1.7777 0.62122-2.57 1.13-0.59236 0.39894-1.2861 0.62094-2 0.64-0.50291-0.035639-1.0056 0.071839-1.45 0.31-0.41 0.41-6 0.11-6.53-0.35s0.64-1.32 1.72-1.01c1.68 0.41 5.79-1.87 5.18-2.87-0.29-0.47-2.33-0.44-2.33 0 0 0.24-0.71 0.64-1.62 0.91-1.23 0.36-2.23 0.32-4.37-0.19-1.0877-0.31436-2.2186-0.45278-3.35-0.41-0.43754 0.10575-0.89938 0.0023-1.25-0.28-0.52-0.41-0.65-0.39-0.65 0.11s-0.56 0.74-1.34 0.9c-2 0.39-2.55 0.33-2.55-0.27s-5-0.62-6.62 0.15c-0.91 0.44-1.29 0.45-1.54 0.06s-1.14-0.42-3.22-0.17c-1.0647 0.19205-2.1553 0.19205-3.22 0-0.60868-0.35569-1.2607-0.6313-1.94-0.82-0.91-0.29-1.63-0.7-1.63-0.93s-0.55-0.31-1.38-0.19c-1.47 0.14-1.79 0.9-0.48 1.12 1.78 0.3 2 0.47 1.42 1.17-0.36363 0.42165-0.90448 0.64762-1.46 0.61-0.55728-0.059442-1.1208 0.0054492-1.65 0.19-0.46959 0.1834-0.98702 0.20452-1.47 0.06-0.39579-0.13992-0.83375-0.092077-1.19 0.13-0.31 0.25-0.87 0.18-1.56-0.19l-1.09-0.59 1.08-0.08 1.69-0.13c0.35245-0.040817 0.65688-0.26534 0.8-0.59 0.21489-0.34364 0.5948-0.54879 1-0.54 0.44 0 0.82-0.16 0.82-0.34 0-0.49-1.08-0.38-3.58 0.35-1.13 0.33-2 0.85-2 1.16-0.01616 0.32604-0.294 0.577-0.62 0.56-0.38 0-0.54-0.26-0.39-0.65 0.2-0.54-0.39-0.66-3.59-0.71h-6.1c-1.26 0-2.27-0.12-2.27-0.39s-0.28-0.3-0.84 0c-1.1204 0.34064-2.2897 0.49271-3.46 0.45-2.29 0-2.62 0.11-2.62 0.83s-0.3 0.8-1.08 0.76c-1.2-0.07-1.6-1.18-0.46-1.18 0.82 0 2.6-1.64 2.2-2-1.0058-0.43084-2.1442-0.43084-3.15 0-0.56103 0.247-1.1909 0.28946-1.78 0.12-0.63357-0.24652-1.3533-0.084378-1.82 0.41-0.63 0.78-2.52 0.87-2.8 0.13-0.17-0.43-1.84-0.5-7.25-0.32-3.85 0.13-7.18 0.16-7.37 0.06-0.73-0.4-4.17-0.4-3.94-0.06 0.36 0.59-1.72 0.48-2.33-0.13-0.41-0.41-0.52 0.07-0.52 2.18 0 1.78-0.2 2.92-0.59 3.31-0.91 0.93-1.53 0.78-2-0.47-0.79-2.05-1.38-0.61-0.72 1.77 0.35272 1.0464 0.42512 2.1669 0.21 3.25-0.2476 0.71924-0.31961 1.4873-0.21 2.24 0.29 1.47-0.71 1.63-1.67 0.26-0.65-0.91-0.68-0.91-0.64-0.11 0.12431 1.0114 0.31472 2.0135 0.57 3 0.38 1.6 0.71 2.14 1.25 2.1 0.91-0.07 1 0.54 0.09 0.89-0.44 0.17-0.58 0.58-0.44 1.22s0.3 1.67 0.4 2.49c0.63 5.15 1.29 8.07 2 8.73 0.69274 0.84884 1.2617 1.7915 1.69 2.8 0.53 1.16 1.09 2.36 1.27 2.7 0.41 0.8 7.59 1.25 8.46 0.53 0.65-0.54 4-0.19 4.42 0.46 0.14 0.22-0.53 0.7-1.52 1.08s-1.78 0.94-1.78 1.26c0 0.73 0.55 0.75 1.26 0 0.70629-0.47795 1.497-0.8173 2.33-1 1.64-0.39 1.83-0.56 2-1.82 0.16-1.6 0.12-1.58 1.67-0.76s2.17 0.82 2.73-0.23 1.48-1.09 1.12-0.09c-0.19 0.49 0.18 0.58 1.95 0.43 0.81371-0.01521 1.6214-0.14309 2.4-0.38 0.12-0.13 0.71 0 1.36 0.23 1.4053 0.36407 2.8485 0.56209 4.3 0.59 2.6 0.1 3.12 0 2.94-0.48-0.35-0.92 1.65-1.53 3.59-1.1 1.1395 0.33976 2.3724 0.12502 3.33-0.58 1.78-1 2.77-1 2.77 0 0 0.64 2.12 0.4 3.68-0.41 0.47-0.25 4.06-0.5 8-0.54 2.6288 0.02979 5.257-0.10045 7.87-0.39 0.36721-0.15942 0.78044-0.17723 1.16-0.05 0.23691 0.16571 0.56548 0.08592 0.7-0.17 0.62824-0.35579 1.352-0.50615 2.07-0.43 0.82457 0.03208 1.6473-0.1005 2.42-0.39 0.92-0.58 1.39-0.09 0.86 0.91-0.42 0.78-0.38 0.82 0.44 0.37 0.83256-0.32513 1.7328-0.43852 2.62-0.33 1.16 0.12 1.77 0 1.92-0.41s0.63-0.5 1.54-0.32c0.82931 0.17586 1.6945 0.01004 2.4-0.46 1.2618-0.55968 2.6203-0.86875 4-0.91 1.6-0.1 4.09-0.32 5.51-0.47 6.44-0.68 7.75-0.65 8.82 0.19l1 0.82-2.68 0.31c-3.37 0.39-4.8 0.92-4.8 1.77s0.68 0.88 1 0.09c0.17-0.47 0.73-0.53 2.33-0.28 0.99033 0.17413 2.0003 0.20779 3 0.1 0.52-0.12 1 0 1.17 0.2s1.1 0.19 2.44-0.15c1.0692-0.38623 2.2304-0.43854 3.33-0.15 0.74 0.26 2.62 0.26 5.43 0 1.5528-0.22311 3.1243-0.28677 4.69-0.19 0.65 0.41 8.61-0.82 8.61-1.32 0-0.28 0.84-0.47 2.05-0.45s2.06-0.18 2.07-0.41c0-1 0.81-1.52 2.49-1.52 1.34 0 1.65 0.12 1.17 0.43-0.48816 0.27813-1.0383 0.42941-1.6 0.44-0.46792-0.02514-0.92381 0.15357-1.25 0.49-0.21 0.35 0.08 0.42 1 0.24 0.89333-0.12546 1.8036-0.04333 2.66 0.24 1.25 0.44 1.47 0.4 2-0.41 0.47611-0.57674 1.1187-0.99235 1.84-1.19 0.65-0.15 1.56-0.39 2-0.52 0.61-0.17 0.76-0.07 0.58 0.41-0.11106 0.3932-0.0213 0.81588 0.24 1.13 0.35 0.34 0.22 0.47-0.47 0.47-1 0-1.3 0.65-0.39 1 1.8029 0.19643 3.6256 0.10529 5.4-0.27 0.56-0.18 0.95-0.11 0.95 0.16s0.31 0.45 0.65 0.45c0.35674-0.0054 0.64463-0.29326 0.65-0.65 5e-3 -0.3726 0.31774-0.66698 0.69-0.65 0.39 0 0.6 0.25 0.48 0.56-0.25 0.68 2 0.62 12.67-0.29 0.66304-0.06172 1.3152-0.20963 1.94-0.44 1.56-0.61 1.85-0.62 2.34-0.13s0.61 0.3 1-0.22c0.55-0.72 3-1.1 4.22-0.66s4.63 0.7 5 0.32 9.68-0.85 9.68-0.39c0 0.83-2.29 1.39-6.09 1.48-4.54 0.11-6.88 0.48-6.88 1.11 0 0.22-0.43 0.4-1 0.4-1.7099 0.14666-3.3513 0.73977-4.76 1.72-0.41 0.45-0.35 0.5 0.35 0.23 1.5735-0.468 3.1996-0.73677 4.84-0.8 0.8192-0.08453 1.5985-0.39624 2.25-0.9 0.63871-0.59612 1.5554-0.78871 2.38-0.5 1.77 0.33 2.1 1.11 0.47 1.11-0.6 0-1.08 0.22-1.08 0.49s0.54 0.4 1.62 0.2c0.89-0.17 2.4-0.37 3.35-0.46s2.6-0.29 3.64-0.47c1.68-0.29 1.87-0.25 1.64 0.37-0.35 0.9 0.38 1 0.88 0.08s5.65-1.52 7-0.9c0.57725 0.3168 1.2851 0.27402 1.82-0.11 0.65084-0.34381 1.4054-0.43635 2.12-0.26 0.78 0.17 1.25 0.1 1.25-0.2 0-0.57 4.28-0.37 5.41 0.26 0.65 0.36 0.52 0.48-0.78 0.73-1.82 0.34-2.18 1.07-0.43 0.88 0.67-0.08 2.55-0.26 4.23-0.42l3.9-0.37c0.8192-0.15613 1.6155-0.41483 2.37-0.77 2.08-0.95 9.18-1.51 8.87-0.7-0.17 0.43 0.37 0.55 2.27 0.5 1.0984 0.0013 2.1929-0.1296 3.26-0.39 0.42579-0.18064 0.91612-0.11552 1.28 0.17 0.2554 0.25994 0.58923 0.42861 0.95 0.48 0.25 0 0.11-0.28-0.32-0.61-0.86-0.65-0.26-1.4 0.65-0.81 1.3862 0.31915 2.8085 0.45365 4.23 0.4 2 0 4.88 0.17 6.36 0.33 2.25 0.23 2.74 0.16 3.07-0.43 0.21-0.39 0.62-0.58 0.89-0.42s0.39 0.47 0.29 0.65c-0.37 0.61 0.9 0.85 2.63 0.49s2.81-0.34 5.88 0.17c1.0947 0.27644 2.2508 0.17423 3.28-0.29 0.68111-0.3961 1.4965-0.49033 2.25-0.26 0.49392 0.23503 1.0731 0.20494 1.54-0.08 0.36-0.31 1.16-0.31 2.42 0 1.7702 0.30639 3.5635 0.46028 5.36 0.46 1.9313 0.01158 3.8593 0.1586 5.77 0.44 2.77 0.51 2.64 0.51 2.64 0 0-0.23-0.65-0.43-1.43-0.43-1.51 0-2.46-0.65-2.46-1.69 0-0.46 0.39-0.54 1.69-0.32 0.9841 0.20516 2.0086 0.0749 2.91-0.37 1-0.5 2.15-0.59 5.13-0.41 2.16 0.13 4.42 0.33 5.08 0.45 0.57688 0.12799 1.1787 0.08277 1.73-0.13 1.3306-0.30735 2.6948-0.44512 4.06-0.41 1.4743 0.04144 2.9466-0.13376 4.37-0.52 0.48-0.25 1-0.34 1.13-0.19s0.28 0 0.28-0.28 0.34-0.46 0.86-0.33 1 0.07 1.08-0.13c0.41-0.64 3-0.91 3.32-0.34 0.24 0.4 0.70661 0.50784 1.3066-0.01216 0.73437-0.41531 2.2895-0.95282 3.0449-1.1378 4.072-0.24302 6.7543-0.99132 10.749-1.18 0.62107 0.02316 1.2269-0.19552 1.69-0.61 0.43295-0.4072 1.0057-0.6327 1.6-0.63 1.7987-0.38119 3.1789-1.3602 4.75-0.89 1.38 0.68 1.93 1.7 0.91 1.7-0.78 0-0.94 0.72-0.22 1 0.66296 0.09946 1.337 0.09946 2 0l1.54-0.2-1-0.8c-1.59-1.22-0.43-1.77 3.07-1.45 2.12 0.2 3.16 0.09 4.22-0.43 0.52549-0.20147 1.0026-0.51156 1.4-0.91 1.1806-2.0684 4.2216-2.3934 5.56-2.56 0.99531-0.14752 1.9375-0.54298 2.74-1.15 0.83-0.87 4.49-1.19 4-0.35-0.15 0.25 0.13 0.39 0.69 0.32s1 0.14 1.14 0.44-0.17 0.54-0.73 0.54-0.82 0.19-0.67 0.43c0.27599 0.28773 0.66156 0.44414 1.06 0.43 0.4206-0.0051 0.81686 0.19677 1.06 0.54 0.15 0.31 0.16 0.15 0-0.37-0.27-1.09 0.48-1.81 1.95-1.87 3.93-0.17 4.68-0.29 5.32-0.81 0.39-0.32 0.73-0.48 0.73-0.34s0.46 0.07 1-0.15 1.17-0.26 1.51 0.08 0.5 0.33 0.5 0.15 0.3-0.1 0.65 0.18c0.52 0.42 0.69 0.39 0.9-0.18 0.3072-0.47196 0.84883-0.73701 1.41-0.69 0.82 0 1-0.11 0.54-0.38-0.91-0.57-0.13-1.34 1.38-1.37 0.86087-0.03404 1.7039-0.25589 2.47-0.65l1.08-0.63-0.95-0.26c-1.13-0.32-1.28-0.83-0.35-1.18 0.36598-0.15186 0.61671-0.49516 0.65-0.89 0-0.82-0.49-0.89-1.21-0.17-0.3 0.3-0.64 0.38-0.82 0.19s0-0.51 0.32-0.73 0.35-0.41-0.56-0.41-1.19-0.18-1.19-1.52c0-1.08 0.19-1.51 0.67-1.51 0.39526 0.00258 0.7519 0.23773 0.91 0.6 0.17996 0.39638 0.50594 0.70802 0.91 0.87 0.52 0.2 0.56 0.13 0.17-0.3s-0.35-0.71 0-1 0.3-0.76-0.09-1.36-0.42-1-0.26-1.19c0.46-0.46 1.6 0.69 1.6 1.6 0 0.43 0.21 0.82 0.44 0.82 0.56 0 0.49-0.69-0.3-2.9zm-6.1 0.3c-0.57 0-0.95-0.5-0.7-0.9s1-0.09 1 0.51c0.0236 0.20475-0.13394 0.38547-0.34 0.39zm-0.53 10.38c-0.48 0-0.87-0.19-0.87-0.43s0.39-0.43 0.87-0.43 0.86 0.19 0.86 0.43-0.39 0.43-0.86 0.43zm-72.94 12.81c-0.59863-0.0175-1.197 0.04301-1.78 0.18-0.31625 0.09258-0.65336-0.05491-0.8-0.35-0.15-0.39 0.35-0.54 1.78-0.54 1.08 0 2 0.17 2 0.37s-0.55 0.36-1.19 0.34zm-113.79 5.35c-0.61 0-0.94-0.21-0.83-0.54 0.10339-0.29709 0.38546-0.49455 0.7-0.49l1.47 0.1c0.77 0.06 0.84 0.16 0.32 0.5-0.50927 0.27837-1.0796 0.42611-1.66 0.43zm-50.04-27.67c-0.6 0-1-0.2-0.84-0.43 0.28185-0.3046 0.68583-0.46619 1.1-0.44 0.48 0 0.85 0.19 0.85 0.44s-0.5 0.43-1.11 0.43zm-13.83 0c-0.61 0-1-0.2-0.85-0.43 0.28495-0.30621 0.69264-0.46782 1.11-0.44 0.47 0 0.84 0.19 0.84 0.44s-0.5 0.43-1.1 0.43zm-2.79 26.16c-3.77 0-5.18-0.6-2.17-0.92 1.91-0.2 6.06 0.22 6.06 0.62 0 0.17-1.73 0.3-3.89 0.3zm-26.34-26.16c-0.21 0-0.5-0.3-0.62-0.65s0-0.65 0.38-0.65c0.35115 0.01081 0.63017 0.29868 0.63 0.65 0 0.35-0.18 0.65-0.39 0.65zm-29.21-1.3c-0.34413 8.284e-4 -0.66918-0.158-0.88-0.43-0.14-0.23 0.15-0.43 0.62-0.43s0.89 0.2 0.89 0.43-0.28 0.43-0.63 0.43zm-12.56-0.86c-0.69 0-1.08-0.24-1.08-0.65 0-0.7 0.39-0.8 1.47-0.39s0.82 1-0.39 1zm-11.89 31.56c-0.56 0.3-0.92 0.29-1.12 0-0.3-0.5 0.56-1.22 1.46-1.23s0.61 0.77-0.34 1.27z"/><path class="cls-1" d="M243.06,35.35c-1.64-.3-2.36-.18-1.86.33a4.34,4.34,0,0,0,1.93.12l1.66-.12-1.73-.33Z"/><path class="cls-1" d="M225.72,33.77c-.51,0-.61.13-.26.26a.89.89,0,0,0,.83,0c.13-.14-.13-.24-.57-.22Z"/><path class="cls-1" d="M209.79,1.73a1.13,1.13,0,0,0-.89.43c-.14.23.15.43.63.43s.89-.2.89-.43-.28-.43-.63-.43Z"/><path class="cls-1" d="M205.66,35.26a.46.46,0,0,0-.65.2c-.14.23,0,.43.39.43.78,0,.88-.25.26-.63Z"/><path class="cls-1" d="M204.69,1.92c-.52.11-1.13.21-1.3.22s-.33.24-.33.5.29.36.76.17a4.71,4.71,0,0,1,1.3-.32c.3,0,.54-.19.54-.39s-.45-.28-1-.18Z"/><path class="cls-1" d="M170.63,35c-.23,0-.43.3-.43.65s.2.64.43.64.44-.3.44-.64-.21-.65-.44-.65Z"/><path class="cls-1" d="M169.94,2.64c-.52,0-.61.12-.26.26a.9.9,0,0,0,.82,0c.14-.13-.13-.23-.56-.21Z"/><path class="cls-1" d="M168.9,34.38c-.24-.15-.43-.07-.43.19a.44.44,0,0,0,.43.46c.26,0,.44-.08.44-.2s-.18-.3-.44-.45Z"/><path class="cls-1" d="M167,35c-.39,0-.67.18-.67.43a.39.39,0,0,0,.41.43.84.84,0,0,0,.67-.43c.15-.25,0-.43-.41-.43Z"/><path class="cls-1" d="M164.15,3.11c-.61,0-.85.1-.54.22a1.66,1.66,0,0,0,1.08,0c.3-.12.06-.22-.54-.22Z"/><path class="cls-1" d="M162.22,2.59a1.12,1.12,0,0,0-.88.44c-.14.23.15.43.62.43s.89-.2.89-.43-.28-.44-.63-.44Z"/><path class="cls-1" d="M161,35.57c-1,.36-1.2.54-.63.66,1,.22,2-.16,2-.73,0-.26-.54-.24-1.41.07Z"/><path class="cls-1" d="M142.27,3.37c-.87.1-1.41.33-1.21.51.42.42,2.76.1,2.76-.38,0-.17-.69-.22-1.55-.13Z"/><path class="cls-1" d="M141.44,34.38c-2.55.46-3.47,1.13-1.08.79a6.52,6.52,0,0,0,2.38-.68c.29-.28-.13-.31-1.3-.11Z"/><path class="cls-1" d="M137.21,35.28c-1.17.35-2.49,1.48-1.73,1.48a1,1,0,0,0,.78-.44,1.38,1.38,0,0,1,1.1-.43c.47,0,.84-.2.84-.45s-.39-.34-1-.16Z"/><path class="cls-1" d="M131.84,35.2c-2.2.31-4.41,1.15-3.71,1.41a2.16,2.16,0,0,0,1.38-.26,4.6,4.6,0,0,1,1.86-.46,3.23,3.23,0,0,0,1.64-.47c.48-.36.18-.41-1.17-.22Z"/><path class="cls-1" d="M125.06,36.43a5,5,0,0,0-2.43.33c0,.33,4.24.25,4.59-.09.14-.14-.82-.25-2.16-.24Z"/><path class="cls-1" d="M107.72,2.68c-.74,0-1,.09-.55.22a2.38,2.38,0,0,0,1.3,0c.31-.13,0-.22-.75-.22Z"/><path class="cls-1" d="M105.16,2.59c-.69,0-3.4,1.45-3,1.6a2.58,2.58,0,0,0,1.56-.49c.56-.37,1.16-.54,1.32-.39s.28,0,.28-.22-.09-.5-.18-.5Z"/><path class="cls-1" d="M98.12,32.71a7.94,7.94,0,0,0-3.25,1.71,4.43,4.43,0,0,1-2.18.82,20.09,20.09,0,0,0-3.53,1c-1.42.58-1.56.74-.86,1a3.54,3.54,0,0,0,3.8-.45,5.23,5.23,0,0,1,2.64-1.1c1.43-.21,1.85-.44,1.67-.91s.15-.7,1.1-.89c.74-.14,1.34-.52,1.34-.84s-.3-.49-.73-.35Z"/><path class="cls-1" d="M83.07,37.73c-.95,0-1.29.1-.76.19a4.75,4.75,0,0,0,1.73,0c.42-.1,0-.18-1-.17Z"/><path class="cls-1" d="M77.62,36.22a1.26,1.26,0,0,0-1.75-.29,3.1,3.1,0,0,1-2.49,0c-1.5-.43-9.3-.34-11.93.13-.72.13-2.32.39-3.57.58a8.55,8.55,0,0,0-2.57.65c-.5.49,2.89.33,6.22-.3,2.94-.55,4.38-.31,2.94.5-.4.22.37.35,2.06.34a10.61,10.61,0,0,0,3.24-.37,20.55,20.55,0,0,1,4.65-.41c2.25,0,4.09-.07,4.06-.09l-.86-.77Zm-10,1c-1.34,0-2.06-.17-1.9-.43a4.3,4.3,0,0,1,2.42-.44c1.34,0,2.07.17,1.9.44a4.4,4.4,0,0,1-2.42.43Z"/><path class="cls-1" d="M52.39,0a2.2,2.2,0,0,0-1.3.69,1.87,1.87,0,0,1-2,.39c-.73-.17-1.3-.11-1.3.13,0,.45,2.82,1,3.59.72A2.9,2.9,0,0,0,52.47.86c.44-.69.42-.86-.08-.86Z"/><path class="cls-1" d="M46.53.22c-.26.15-.44.33-.44.45s.18.19.44.19A.43.43,0,0,0,47,.41c0-.26-.19-.34-.43-.19Z"/><path class="cls-1" d="M44.45,39.46c-5.66-.27-11-.17-11.46.22a12.72,12.72,0,0,1-3,1c-1.34.3-2.37.72-2.25.91.33.54,2.94.47,3.5-.09.41-.41.58-.37.8.19s.48.61,1.13.26a3.51,3.51,0,0,1,2.07-.19c.74.15,1.36.07,1.54-.22a1,1,0,0,1,1.14-.19,1.61,1.61,0,0,0,1.43-.22,8.07,8.07,0,0,1,3.33-.5,21,21,0,0,0,3.52-.22c1.44-.42.7-.81-1.77-.92Z"/><path class="cls-1" d="M28.54,39.39c-.52,0-.62.13-.26.26a.88.88,0,0,0,.82,0c.14-.14-.13-.24-.56-.22Z"/><path class="cls-1" d="M26.2,40.46c-1.34.35-2.17,1-1.25,1a3,3,0,0,0,1.49-.67c.81-.64.8-.66-.24-.38Z"/><path class="cls-1" d="M25.08,38.49c-.35,0-.53.2-.39.43a.45.45,0,0,0,.65.19c.62-.37.52-.62-.26-.62Z"/><path class="cls-1" d="M.26,11.46c-.26-.16-.33,0-.18.39.29.73.61.87.61.26a.81.81,0,0,0-.43-.65Z"/></g></g><metadata><rdf:RDF><cc:Work rdf:about=""><dc:title>Asset 2</dc:title></cc:Work></rdf:RDF></metadata></svg>
