<svg xmlns="http://www.w3.org/2000/svg" viewBox="0 0 506.83 50.89"><defs><style>.cls-1{fill:#5b0b0c;}</style></defs><title>stroke3</title><g id="Layer_2" data-name="Layer 2"><g id="Layer_1-2" data-name="Layer 1"><path class="cls-1" d="M506.23,22.5c-.71-1-.86-2.45-.24-2.44.38,0,.24-.7-.61-3.23a1.38,1.38,0,0,0-1.32-.77c-.57,0-1.05-.24-1.05-.5s-.3-.37-.66-.24c-1,.35-1.26-.5-.34-1,.74-.4.74-.46-.05-.78-.53-.21-.93-.14-1,.19-.25.69-1.25.64-2.43-.14s-8.41-1.47-22-2.34c-4.59-.3-8.56-.73-8.84-1a6.27,6.27,0,0,0-2.71-.44c-1.22,0-3.48-.16-5.07-.34s-6-.51-9.92-.73l-9.26-.51c-1.22-.07-5.87-.53-10.36-1a106,106,0,0,0-14.56-.75c-14.53.35-17.28.45-17.58.62s-9.05.16-19.73.14c-33.59-.07-34-.08-33.5-1.3.26-.65-2.36-.62-3.65,0a7.27,7.27,0,0,1-2.88.48,28.68,28.68,0,0,0-3,.09A7.58,7.58,0,0,1,333,6.27c-2.46-.73-3-.78-3.57-.33a1,1,0,0,1-1.1.12,68.25,68.25,0,0,0-8.62-.64c-7.11-.26-8.1-.21-8.11.39,0,.39-.21.68-.5.67s-.36-.31-.2-.71c.23-.58.07-.65-.95-.41a3,3,0,0,0-1.49.73c-.15.24-1.15.36-2.21.27a25.31,25.31,0,0,0-4.28.16c-1.86.25-2.51.17-3.13-.41-1.13-1.05-9.13-1-9.94.12-.63.83-2.93,1.07-2.91.31,0-.53-2.75-.68-3.27-.18a6.16,6.16,0,0,1-3.49.22c-.68-.43-9.17-.66-10.55-.28A54.41,54.41,0,0,1,259,7.68a29.71,29.71,0,0,0-3.09.23c-.36.08-.6-.13-.53-.45s-.14-.51-.76-.32-.91.08-.91-.19-.56-.43-1.27-.39c-1.33.08-1.45.77-.15.79.49,0,.56.16.22.49-.67.65-2.59.27-2.42-.48.11-.46-.81-.54-4.57-.4a22.84,22.84,0,0,0-5.21.54,12,12,0,0,1-2.2.91c-1.51.49-1.75.47-2.25-.23s-1-.75-4.27-.53c-2,.14-5,.32-6.59.41l-9,.5c-3.41.19-7.58.4-9.28.47l-8.17.31c-4.43.16-8.31.27-21.64.62-1.58,0-4.47.2-6.41.35s-4.13.27-4.86.26-2.83.13-4.64.32-6.61.36-10.62.37c-4.42,0-7.69.22-8.27.51a2.23,2.23,0,0,1-1.61.22,1.56,1.56,0,0,0-1.22.07,12,12,0,0,1-3.45.41c-1.59,0-3.68.18-4.66.32-3,.42-9.5.46-9.49.06s-2.69-.27-3.89.35-2.5.24-2-.53c.22-.34-.18-.39-1.42-.17a74.55,74.55,0,0,1-7.47.33c-8,0-23.92.37-26,.55-9.42.78-30.88.6-36-.31-9.65-1.7-14.86-2.49-20-3A41.84,41.84,0,0,1,18,8.92a6.79,6.79,0,0,0-1.54-.54c-1.63-.16-2-1.86-.49-2.13.72-.12.6-.19-.46-.26-.8,0-1.43-.26-1.43-.48s-.63-.55-1.42-.73a11.76,11.76,0,0,1-2.53-.93,11.66,11.66,0,0,0-4.3-1.53,4,4,0,0,1-1.57-1.2L3.22,0l0,2.34c0,2.21,0,2.37-1.23,2.9C.66,5.83-.46,7.41.19,7.86,2.5,9.49,2.63,9.67,2,10.36s-.46.61.21.37S3,10.64,2.66,12a20.22,20.22,0,0,0-.43,2.38,5.8,5.8,0,0,1-.63,1.85c-.44.78-.41,1,.18,1.39a.88.88,0,0,1,.37,1.26,3.88,3.88,0,0,0,.21,4.07,3.09,3.09,0,0,1,.8,1.36.43.43,0,0,0,.39.47c.22,0,.37-.33.34-.77s.26-.77.83-.76c1.39,0,1,1.12-.56,1.76-1.37.56-1.5.53-2.11-.37l-.65-1,0,1.17c0,.94.23,1.2,1.2,1.32.7.09,1.2.43,1.2.82s-.41.62-1.42.5-1.53.07-1.89.73c-.68,1.22-.62,1.36.53,1.37,1.4,0,4.31,2.89,4.47,4.4a27.12,27.12,0,0,0,3.19,6.93c.18.2.75.1,1.24-.2.76-.46,1.07-.42,1.81.27s1,.74,1.58.27.73-.41.93.39a1.2,1.2,0,0,0,1.15,1,30.54,30.54,0,0,1,6.79.83,15,15,0,0,0,4.12.22,8.71,8.71,0,0,1,3.37.18.67.67,0,0,0,.73.19,2.81,2.81,0,0,1,1.48.2c.57.21,1.07.19,1.23,0s.87-.16,1.79.25c1.36.59,1.51.59,1.52,0s.3-.63,1.44-.38c.79.17,2.47.43,3.74.59,1.9.23,2.32.16,2.33-.39,0-.82,1.43-1.34,2.62-.94a2.58,2.58,0,0,0,1.76-.17c.89-.45,1.37.13.52.63a2.49,2.49,0,0,0-.61,1.34c-.2,1-.09,1.11,1.81,1.22,2.91.17,4.61,0,5.08-.45.25-.24.8-.11,1.41.31s1.21.58,1.48.42a6,6,0,0,1,2.7.48c1.58.54,2.38.63,2.71.31s.93-.25,2,.21c1.4.61,1.57.59,2.32-.3s.92-.86,1.44-.42a3,3,0,0,0,2.14.32c.82-.12,2.56-.27,3.84-.34A6.26,6.26,0,0,0,78.27,46c.89-.78,3-.85,3.41-.11.16.26-.2.85-.78,1.29-.89.66-1,.87-.46,1.21a1.6,1.6,0,0,0,2.27-1c0-.4.45-.66,1.11-.65s1.1.21,1.1.44.39.35.83.28a4.15,4.15,0,0,1,2.07.51c1.49.8,3.86,1,4.67.34a7.09,7.09,0,0,1,2.57-.66,55.3,55.3,0,0,0,7.53-1.3c1.06-.3,1.08-.28.43.51A11.66,11.66,0,0,1,101.9,48c-.27.22-.12.26.37.11s1.31-.36,1.89-.5,1.06-.45,1.07-.69.24-.23.63.1a1.07,1.07,0,0,0,1.1.26,3,3,0,0,1,1.9.43,8.74,8.74,0,0,0,3.41.67,42.67,42.67,0,0,1,4.8.31c2.43.31,2.79.26,2.58-.31-.37-1,.27-1.18,1.81-.58a2.46,2.46,0,0,0,2.4,0,4.28,4.28,0,0,1,3-.1c2.33.51,5.24.51,6,0a4.49,4.49,0,0,1,2.29,0c1.68.32,4.83-.3,5.33-1.05.37-.54,2.19.07,2.18.74,0,.92-1.57,1.94-2.54,1.66a3.83,3.83,0,0,0-2.28.43,4.94,4.94,0,0,1-1.71.61,2.56,2.56,0,0,0-1.13.25A3.14,3.14,0,0,1,133,50a2.37,2.37,0,0,0-2.76,0c-1.16.54-1.26.69-.57.85a1.24,1.24,0,0,0,1.2-.38c.3-.47.63-.47,1.94,0s2.2.5,4.77.12a18.91,18.91,0,0,0,4.07-1,7.22,7.22,0,0,1,2.2-.58,2.39,2.39,0,0,0,1.66-.73c.29-.49.67-.51,1.9-.12a3.49,3.49,0,0,0,2.79-.07,15.65,15.65,0,0,1,8.26-.56,16.25,16.25,0,0,0,4.36.43c3.58-.14,4.51.3,2.24,1.06a10.78,10.78,0,0,1-2.77.58c-.53,0-1,.2-1,.45s1.36.39,4.06.24c4.77-.26,5.37-.39,4.95-1.1-.21-.34,0-.38.76-.13,1.5.51,4.38.38,4.85-.22.13-.17,1-.07,1.91.23,1.27.4,1.87.41,2.51,0a6.21,6.21,0,0,1,2.61-.49,12.19,12.19,0,0,0,4.48-1.23c2.14-1,2.9-1.16,3.59-.78a2.27,2.27,0,0,0,1.61.2,17.43,17.43,0,0,1,3.16-.44,12.66,12.66,0,0,0,3.43-.65,2,2,0,0,1,2.05,0c.84.39,1.11.36,1.31-.14.14-.34.85-.63,1.55-.61a9,9,0,0,0,2.79-.58,19,19,0,0,1,4.06-.86c2.83-.29,5.62-1.24,5.63-1.91a.5.5,0,0,1,.52-.43,1.77,1.77,0,0,0,1.09-.75c.47-.62.74-.67,1.39-.25s1.21.39,2.54-.05A5.27,5.27,0,0,1,224,39.8c.11.1.73-.19,1.4-.65a5.32,5.32,0,0,1,5-.84c1,.35,1.54.37,1.85.07a1.72,1.72,0,0,1,1.09-.42,1.69,1.69,0,0,0,1.16-.67c.42-.55.73-.59,1.74-.19a10.56,10.56,0,0,0,6.23-.21,7.53,7.53,0,0,1,3.09-.25c5.29.51,7.72.56,7.73.17,0-.23.49-.28,1.1-.12s1.1.09,1.11-.16.87-.43,1.92-.41a5.19,5.19,0,0,0,2.26-.3,1.31,1.31,0,0,1,.62-.36,7.26,7.26,0,0,0,1.16-.4c.53-.23.92-.18,1,.12s.55.39,1,.26a3,3,0,0,1,1.9.34c.75.43,1.65.46,3.59.12,1.64-.28,2.69-.29,2.85,0s.5.27.91,0a8,8,0,0,1,3-.37c1.28,0,2.32-.14,2.32-.36s.49-.36,1.11-.32,1.1.22,1.1.39c0,.47,1.48-.11,2.07-.8.4-.47.91-.56,1.79-.31a5.57,5.57,0,0,0,1.6.27,1.5,1.5,0,0,1,1,.43,1.93,1.93,0,0,0,1.5.31c1-.24,1.19.54.37,1.33a.92.92,0,0,0-.19,1c.21.36.47.29.87-.23a1.15,1.15,0,0,1,1.3-.45c.93.37,3.44-.07,3.15-.55s1.07-.89,4.12-1.06c2.34-.13,2.74-.05,2.73.55s.16.58.55.3a10.52,10.52,0,0,1,2.33-1,11,11,0,0,0,2.33-1,3.31,3.31,0,0,1,2-.17,4.84,4.84,0,0,0,2.54-.3c1.91-.94,10.83-1.69,11.27-.94s1.54.56,2.87-.11c.82-.41,2.62-.52,6.15-.37,3.79.16,5.29,0,6.27-.44.71-.35,1.29-.82,1.3-1s.58-.73,1.34-1.15,1.34-.92,1.34-1.13-.17-.27-.44-.11c-1.83,1.09-7.53,1.5-7.51.54,0-.78,1.48-1.43,3.29-1.45a6,6,0,0,0,2.25-.3,2.42,2.42,0,0,1,1.55.09c1.49.46,8.06.21,8.39-.31.12-.19,2.78-.14,5.91.11a41.25,41.25,0,0,0,6.07.25,12.73,12.73,0,0,1,2.7-.38,13.78,13.78,0,0,0,3.21-.54c2.57-1.09,3.3-1.27,3.52-.88.13.22-.1.58-.5.79-.57.3-.38.43.9.61A3.3,3.3,0,0,0,372,26.8c.11-.17.6-.2,1-.08a1.1,1.1,0,0,0,1.13-.24c.21-.36.53-.35,1.19,0s1.06.34,1.35.07,1-.28,2,0,1.69.31,2,0a1.79,1.79,0,0,1,1.18-.47,6,6,0,0,0,2-.63c1-.49,1.44-.52,1.9-.13.72.62.25,1.41-.63,1.06q-.66-.27-.45.36a1,1,0,0,1-.19,1c-.39.38,4.63.07,7-.43,2.09-.45.85-1-1.89-.85-2.3.14-2.87,0-2.86-.45,0-.95,2.05-1.44,5.54-1.33,2.16.07,3,.25,3,.62-.17.75.79.68,1.38-.11.41-.53.9-.57,2.57-.24,2.42.48,4.08.28,4.81-.57a1.41,1.41,0,0,1,2.47.26c.2.82.31.84,1.46.26,1.61-.79,1.78-.78,1.77,0,0,.35.2.66.43.67s.34-.46.19-1.12l-.24-1.13,2.93.35c2.55.31,3,.25,3.54-.48.35-.48.76-.65,1-.42s.13.49-.18.59a1,1,0,0,0-.57.85c0,.53.13.56.66.15s1-.4,1.95-.06c1.09.39,1.33.33,1.73-.51a1.86,1.86,0,0,1,1.38-1c.79-.05.88.12.62,1.09-.21.79-.14,1.05.21.84a1.47,1.47,0,0,0,.53-1.16c0-.65.34-.86,1.36-.84.75,0,1.44.3,1.57.64.4,1.12,2.55.22,2.73-1.15s.62-1.48,1.41-.51a1.87,1.87,0,0,0,1.16.68c.75,0,.78.55.06,1.24-.4.39-.36.52.17.53a1,1,0,0,1,.87.5c.16.53,1.68.12,1.69-.46,0-.22-.26-.3-.61-.17-.62.22-1.39-1.07-.91-1.53a4.41,4.41,0,0,1,1.95-.12c1.37.11,1.72,0,1.93-.77s.63-.89,1.82-.88a2.81,2.81,0,0,1,1.83.47,1.42,1.42,0,0,0,1.07.46,1.24,1.24,0,0,1,1.07.7c.15.4.43.59.66.45.52-.31,1.81.23,1.8.76,0,.21-.47.58-1,.78l-1,.38,1,0a2.57,2.57,0,0,0,1.8-.88l.77-.91,1.28,1.12a6.51,6.51,0,0,0,1.51,1.1,13.08,13.08,0,0,1,2.12,1,7.58,7.58,0,0,0,4.07.92,6,6,0,0,1,2.47.24c.48.49,4.37.37,4.9-.15.36-.34.67-.33,1.11.05.66.57,9,.6,9.93,0a.67.67,0,0,1,.95.16c.35.58,8.78,1.54,13.68,1.56s10.75.36,11.24.67c.75.47,4.16.24,4.73-.32s.34-.75-.4-1.55c-1.27-1.39-1.22-2.1.15-2.07.75,0,1-.18.83-.65a.72.72,0,0,1,.47-.92c.89-.32.91-.61.09-1.72Zm-87.9-.34c-.39-.41.33-1.27.81-1,.27.18.25.45-.06.75s-.61.36-.75.21Zm-19.65,1.56a.41.41,0,0,1-.41-.45c0-.26.29-.44.69-.43s.57.19.41.45a.87.87,0,0,1-.69.43Zm-1.52.14c-.52.19-.68.07-.57-.46a1.27,1.27,0,0,1,.72-.91c.79-.25.64,1.08-.15,1.37ZM225.3,38.26a5.18,5.18,0,0,1-2.09.7c-2,.15-6,.5-6.85.61-.53.06-.88-.16-.87-.56s.5-.73,1.07-.8a3.71,3.71,0,0,0,1.73-.77,1.53,1.53,0,0,1,1.33-.38,1.46,1.46,0,0,0,1.27-.22,3.12,3.12,0,0,1,2.21-.16c1.14.22,1.71.14,2-.26s.46-.43.8.1c.57.91.52,1-.59,1.74Zm-38.75,2.41c-2.13.64-4,.65-4,0,0-.25.41-.43.94-.42s.85-.2.67-.72,0-.68,1.13-.43a13.33,13.33,0,0,0,2.23.32c1.39,0,.87.66-1,1.21Zm-12.15.8c-.36,0-.66-.2-.66-.41,0-.57.71-1,1.07-.6s.29,1-.41,1ZM70.51,25.1c-1.81.3-2.76-.09-2.08-.88.51-.58,3.6-.34,3.59.27,0,.2-.67.47-1.51.61ZM55.81,42.5a6.64,6.64,0,0,1-2.48.47c-.31-.32.24-1.6.64-1.49a6.44,6.44,0,0,0,1.77-.22c1.24-.27,2.34-.08,2.33.41a11.22,11.22,0,0,1-2.26.83Zm-4.17,1.06c-.75,0-.88-.69-.2-1.1s1.39.2,1.07.72a1.05,1.05,0,0,1-.87.38Zm-36-2.71c-.54-.07-.43-.68.14-.85.31-.09.46.06.35.37s-.31.51-.49.48ZM9,39.25c-.36-.15-.26-.25.27-.27s.71.1.57.23a.92.92,0,0,1-.84,0ZM7.81,34.78C6.4,34.6,5.5,34,6.67,34c.4,0,.76-.19.76-.43,0-.65,1.65-.54,1.88.12.31.91-.14,1.22-1.5,1.05Z"/></g></g></svg>