<svg xmlns="http://www.w3.org/2000/svg" viewBox="0 0 380.29 42.14"><defs><style>.cls-1{fill:#5b0b0c;}</style></defs><title>Asset 2</title><g id="Layer_2" data-name="Layer 2"><g id="Layer_1-2" data-name="Layer 1"><path class="cls-1" d="M379.63,5.75C379,3.89,378,3.34,377.49,4.58c-.16.43-.55.55-1.11.37-.74-.24-.82-.15-.58.63.46,1.47-.18,1-.84-.56l-.61-1.47-3.85.21c-3.2.18-4,.1-4.56-.5-.39-.38-.88-.61-1.08-.49a31.87,31.87,0,0,1-4.76.28,18.68,18.68,0,0,0-4.58.37c-.27.44-9,.43-9.58,0a2.22,2.22,0,0,0-1.73,0c-.69.22-8.43.53-17.26.67s-16.58.3-17.29.34a13.83,13.83,0,0,1-3.4-.43A5.29,5.29,0,0,0,303,3.94c-1,.4-4.58.5-12.41.35a66.4,66.4,0,0,0-9.21.72c-1.95.23-2.25.17-2.25-.47s-.14-.62-.6-.26a1.65,1.65,0,0,1-1.73,0c-1.08-.4-6.62-.59-13.11-.45-2.2,0-2.72-.07-2.72-.59,0-.78-.67-.91-1.1-.22s-12,.26-12.22-.39a.7.7,0,0,0-.6-.52c-.25,0-.33.26-.2.61s-.19.68-1.14.86c-1.95.36-22.3-.16-24.09-.62-1.95-.5-7.92-.65-8.61-.22a.71.71,0,0,1-.77.09c-.14-.13-.61-.06-1,.15s-7.85.51-16.5.67S178.73,4,178.37,4c-2.85.16-4.56-.59-2.63-1.16.41-.12.26-.17-.35-.13s-1,.3-1,.57c.13.73-1.78,1-9.73,1.31-5.11.21-7,.15-7-.21s.32-.5.76-.5a2.79,2.79,0,0,0,1.36-.39c.4-.25-.15-.39-1.62-.41-1.21,0-2.13.14-2,.33.37.59-.94,1.41-2,1.26-.69-.1-1-.37-.86-.9s-.2-.74-2.36-.67c-1.77.07-2.73.33-3.33.93-.75.76-1.27.82-5,.61-2.3-.13-6.66-.09-9.77.09a43.33,43.33,0,0,1-6,.1c-.22-.12.17-.46.86-.75l1.25-.54-1.14,0a2.31,2.31,0,0,0-1.69.61c-.64.78-8,1-7.55.21.15-.24.07-.43-.19-.43a.43.43,0,0,0-.45.43c0,.24-.39.44-.87.44s-.86-.2-.86-.44-.8-.43-1.75-.43-1.65-.17-1.5-.43A1.85,1.85,0,0,1,114.22,3c.78,0,1.06-.23,1.06-.87,0-1.27-1-1.08-2.32.43a3.18,3.18,0,0,1-2.09,1.28l-1,0L111,3.37,112,2.9l-1-.2a2.29,2.29,0,0,0-1.73.46,7.55,7.55,0,0,1-2.44,1.12,9,9,0,0,0-2.57,1.13,3.76,3.76,0,0,1-2,.64,2.67,2.67,0,0,0-1.45.31c-.41.41-6,.11-6.53-.35S94.92,4.69,96,5c1.68.41,5.79-1.87,5.18-2.87-.29-.47-2.33-.44-2.33,0,0,.24-.71.64-1.62.91C96,3.4,95,3.36,92.86,2.85a10.62,10.62,0,0,0-3.35-.41,1.45,1.45,0,0,1-1.25-.28c-.52-.41-.65-.39-.65.11s-.56.74-1.34.9c-2,.39-2.55.33-2.55-.27s-5-.62-6.62.15c-.91.44-1.29.45-1.54.06s-1.14-.42-3.22-.17a9.07,9.07,0,0,1-3.22,0,8.19,8.19,0,0,0-1.94-.82c-.91-.29-1.63-.7-1.63-.93S65,.88,64.17,1c-1.47.14-1.79.9-.48,1.12,1.78.3,2,.47,1.42,1.17a1.77,1.77,0,0,1-1.46.61A3.79,3.79,0,0,0,62,4.09a2.26,2.26,0,0,1-1.47.06,1.38,1.38,0,0,0-1.19.13c-.31.25-.87.18-1.56-.19L56.69,3.5l1.08-.08,1.69-.13a1,1,0,0,0,.8-.59,1.15,1.15,0,0,1,1-.54c.44,0,.82-.16.82-.34,0-.49-1.08-.38-3.58.35-1.13.33-2,.85-2,1.16a.59.59,0,0,1-.62.56c-.38,0-.54-.26-.39-.65.2-.54-.39-.66-3.59-.71-2.12,0-4.84,0-6.1,0s-2.27-.12-2.27-.39-.28-.3-.84,0a10.57,10.57,0,0,1-3.46.45c-2.29,0-2.62.11-2.62.83s-.3.8-1.08.76C34.33,4.11,33.93,3,35.07,3c.82,0,2.6-1.64,2.2-2a4,4,0,0,0-3.15,0,2.62,2.62,0,0,1-1.78.12,1.67,1.67,0,0,0-1.82.41c-.63.78-2.52.87-2.8.13-.17-.43-1.84-.5-7.25-.32-3.85.13-7.18.16-7.37.06C12.37,1,8.93,1,9.16,1.34c.36.59-1.72.48-2.33-.13-.41-.41-.52.07-.52,2.18,0,1.78-.2,2.92-.59,3.31-.91.93-1.53.78-2-.47C2.93,4.18,2.34,5.62,3,8a6.32,6.32,0,0,1,.21,3.25A4.77,4.77,0,0,0,3,13.49c.29,1.47-.71,1.63-1.67.26-.65-.91-.68-.91-.64-.11a23.34,23.34,0,0,0,.57,3c.38,1.6.71,2.14,1.25,2.1.91-.07,1,.54.09.89-.44.17-.58.58-.44,1.22s.3,1.67.4,2.49c.63,5.15,1.29,8.07,2,8.73a11.6,11.6,0,0,1,1.69,2.8c.53,1.16,1.09,2.36,1.27,2.7.41.8,7.59,1.25,8.46.53.65-.54,4-.19,4.42.46.14.22-.53.7-1.52,1.08s-1.78.94-1.78,1.26c0,.73.55.75,1.26,0a6.73,6.73,0,0,1,2.33-1c1.64-.39,1.83-.56,2-1.82.16-1.6.12-1.58,1.67-.76s2.17.82,2.73-.23S28.57,36,28.21,37c-.19.49.18.58,1.95.43a8.81,8.81,0,0,0,2.4-.38c.12-.13.71,0,1.36.23a18.57,18.57,0,0,0,4.3.59c2.6.1,3.12,0,2.94-.48-.35-.92,1.65-1.53,3.59-1.1a3.79,3.79,0,0,0,3.33-.58c1.78-1,2.77-1,2.77,0,0,.64,2.12.4,3.68-.41.47-.25,4.06-.5,8-.54a64.79,64.79,0,0,0,7.87-.39,1.62,1.62,0,0,1,1.16-.05.48.48,0,0,0,.7-.17,3.46,3.46,0,0,1,2.07-.43,6.21,6.21,0,0,0,2.42-.39c.92-.58,1.39-.09.86.91-.42.78-.38.82.44.37a5.4,5.4,0,0,1,2.62-.33c1.16.12,1.77,0,1.92-.41s.63-.5,1.54-.32a3.15,3.15,0,0,0,2.4-.46,10.65,10.65,0,0,1,4-.91c1.6-.1,4.09-.32,5.51-.47,6.44-.68,7.75-.65,8.82.19l1,.82-2.68.31c-3.37.39-4.8.92-4.8,1.77s.68.88,1,.09c.17-.47.73-.53,2.33-.28a10.7,10.7,0,0,0,3,.1c.52-.12,1,0,1.17.2s1.1.19,2.44-.15a5.61,5.61,0,0,1,3.33-.15c.74.26,2.62.26,5.43,0a23,23,0,0,1,4.69-.19c.65.41,8.61-.82,8.61-1.32,0-.28.84-.47,2.05-.45s2.06-.18,2.07-.41c0-1,.81-1.52,2.49-1.52,1.34,0,1.65.12,1.17.43a3.36,3.36,0,0,1-1.6.44,1.62,1.62,0,0,0-1.25.49c-.21.35.08.42,1,.24a5.87,5.87,0,0,1,2.66.24c1.25.44,1.47.4,2-.41a3.63,3.63,0,0,1,1.84-1.19c.65-.15,1.56-.39,2-.52.61-.17.76-.07.58.41a1.24,1.24,0,0,0,.24,1.13c.35.34.22.47-.47.47-1,0-1.3.65-.39,1a17.13,17.13,0,0,0,5.4-.27c.56-.18.95-.11.95.16s.31.45.65.45a.66.66,0,0,0,.65-.65.66.66,0,0,1,.69-.65c.39,0,.6.25.48.56-.25.68,2,.62,12.67-.29a7.66,7.66,0,0,0,1.94-.44c1.56-.61,1.85-.62,2.34-.13s.61.3,1-.22c.55-.72,3-1.1,4.22-.66s4.63.7,5,.32,9.68-.85,9.68-.39c0,.83-2.29,1.39-6.09,1.48-4.54.11-6.88.48-6.88,1.11,0,.22-.43.4-1,.4a9.8,9.8,0,0,0-4.76,1.72c-.41.45-.35.5.35.23a19.63,19.63,0,0,1,4.84-.8,4.42,4.42,0,0,0,2.25-.9,2.35,2.35,0,0,1,2.38-.5c1.77.33,2.1,1.11.47,1.11-.6,0-1.08.22-1.08.49s.54.4,1.62.2c.89-.17,2.4-.37,3.35-.46s2.6-.29,3.64-.47c1.68-.29,1.87-.25,1.64.37-.35.9.38,1,.88.08s5.65-1.52,7-.9a1.71,1.71,0,0,0,1.82-.11,3,3,0,0,1,2.12-.26c.78.17,1.25.1,1.25-.2,0-.57,4.28-.37,5.41.26.65.36.52.48-.78.73-1.82.34-2.18,1.07-.43.88.67-.08,2.55-.26,4.23-.42l3.9-.37a9.93,9.93,0,0,0,2.37-.77c2.08-.95,9.18-1.51,8.87-.7-.17.43.37.55,2.27.5a13.68,13.68,0,0,0,3.26-.39,1.27,1.27,0,0,1,1.28.17,1.66,1.66,0,0,0,.95.48c.25,0,.11-.28-.32-.61-.86-.65-.26-1.4.65-.81a16.14,16.14,0,0,0,4.23.4c2,0,4.88.17,6.36.33,2.25.23,2.74.16,3.07-.43.21-.39.62-.58.89-.42s.39.47.29.65c-.37.61.9.85,2.63.49s2.81-.34,5.88.17a5,5,0,0,0,3.28-.29,2.83,2.83,0,0,1,2.25-.26,1.62,1.62,0,0,0,1.54-.08c.36-.31,1.16-.31,2.42,0a31.4,31.4,0,0,0,5.36.46,41.3,41.3,0,0,1,5.77.44c2.77.51,2.64.51,2.64,0,0-.23-.65-.43-1.43-.43-1.51,0-2.46-.65-2.46-1.69,0-.46.39-.54,1.69-.32a4.5,4.5,0,0,0,2.91-.37c1-.5,2.15-.59,5.13-.41,2.16.13,4.42.33,5.08.45a3,3,0,0,0,1.73-.13,16.19,16.19,0,0,1,4.06-.41,15.07,15.07,0,0,0,4.37-.52c.48-.25,1-.34,1.13-.19s.28,0,.28-.28.34-.46.86-.33,1,.07,1.08-.13c.41-.64,3-.91,3.32-.34.24.4.49.37,1.09-.15a5.59,5.59,0,0,1,2.08-1,116.7,116.7,0,0,1,11.93-1.18,2.4,2.4,0,0,0,1.69-.61,2.32,2.32,0,0,1,1.6-.63A5.37,5.37,0,0,0,331,24.8a1.93,1.93,0,0,1,2.4-.12c1.38.68,1.93,1.7.91,1.7-.78,0-.94.72-.22,1a6.74,6.74,0,0,0,2,0l1.54-.2-1-.8c-1.59-1.22-.43-1.77,3.07-1.45,2.12.2,3.16.09,4.22-.43a4,4,0,0,0,1.4-.91,7.41,7.41,0,0,0-2.48-.13,10.11,10.11,0,0,1-3.36-.32,24.86,24.86,0,0,0-5.53-.35c-4.11.06-4.77.18-5.49,1a5.33,5.33,0,0,1-2.6,1.18,12.94,12.94,0,0,0-3,.93c-2.21,1.1-7-.39-4.89-1.51a10.13,10.13,0,0,1,2.18-.71c.78-.17,1.41-.5,1.41-.74s-.28-.32-.67-.17a40.73,40.73,0,0,1-5.51.47c-4.8.22-4.83.21-3-.47,1-.38,1.84-.89,1.84-1.13s-.33-.29-.76-.1a17.77,17.77,0,0,1-2.92.65,13.05,13.05,0,0,0-3.39,1c-.93.49-2.12.59-4.85.43l-3.61-.22-2.24,1.79c-2.43,1.92-2.63,2-3.94,1.27-.61-.32-1-.32-1.34,0s-.22.48.52.48c1.61,0,.78,1.07-.95,1.22s-2-.15-.87-1.07c.7-.56.61-.62-1-.53-1.81.11-2.81-.23-2.81-1,0-.2.39-.39.82-.39a2.11,2.11,0,0,0,1.36-.65c.64-.78,2.41-.83,2.71-.08.17.4.31.38.65-.09s1.16-.58,2.94-.51c2.81.12,2.95-.44.17-.68a8,8,0,0,1-2.16-.39c-.93-.57-.31-1.06,1.34-1.06,1.9,0,1.92-.59,0-1.4l-1.17-.5,1.62-.15c1-.1,1.63-.38,1.63-.78a.65.65,0,0,1,.64-.63.66.66,0,0,1,.65.65c0,.35.19.65.39.65s.5-.3.63-.65a1.43,1.43,0,0,1,1.32-.65,1.79,1.79,0,0,0,1.41-.56c.73-1.22,3.17-2,5.46-1.78a13.66,13.66,0,0,1,2.34.35c.37.36-.43,1.49-1.21,1.69-1,.26-1.1,1.08-.17,1.44.35.13,1.25-.27,2-.89,1.95-1.65,2.89-1.43,1.37.31-.72.83-.72.85,0,.59a5.31,5.31,0,0,1,1.36-.28c.36,0,.48-.31.35-.82-.18-.69.06-.86,1.45-1a4.15,4.15,0,0,1,2.14.17c.53.42,1.47-.37,1.47-1.23,0-.65,1.59-.72,2-.09.14.23.66.31,1.09.18s.82-.08.82.13c0,.71-1.08,1.38-2.25,1.38-.65,0-1.21.18-1.21.39,0,.58,5.88.06,7.22-.64s1.86-.51,1.86.42,1.7,1.19,2.28.26,1-1.05,2.17,0,3.2.89,3.83-.12c.19-.31.45-.41.63-.24s0,.75-.41,1.36a4.43,4.43,0,0,0-.72,1.51c0,.76.86.57,1.15-.26.61-1.73,1.49-2.27,3.22-2,.91.15,1.69.09,1.69-.12s2-.4,4.5-.43c4.23,0,4.45,0,3.78.69a5.41,5.41,0,0,1-2.62,1c-1.64.22-2.6.82-2.62,1.64,0,.33,4.44.15,6.9-.27a6,6,0,0,0,2.74-1.15c.83-.87,4.49-1.19,4-.35-.15.25.13.39.69.32s1,.14,1.14.44-.17.54-.73.54-.82.19-.67.43a1.4,1.4,0,0,0,1.06.43,1.28,1.28,0,0,1,1.06.54c.15.31.16.15,0-.37-.27-1.09.48-1.81,1.95-1.87,3.93-.17,4.68-.29,5.32-.81.39-.32.73-.48.73-.34s.46.07,1-.15,1.17-.26,1.51.08.5.33.5.15.3-.1.65.18c.52.42.69.39.9-.18a1.53,1.53,0,0,1,1.41-.69c.82,0,1-.11.54-.38-.91-.57-.13-1.34,1.38-1.37a5.91,5.91,0,0,0,2.47-.65l1.08-.63-.95-.26c-1.13-.32-1.28-.83-.35-1.18a1.06,1.06,0,0,0,.65-.89c0-.82-.49-.89-1.21-.17-.3.3-.64.38-.82.19s0-.51.32-.73.35-.41-.56-.41-1.19-.18-1.19-1.52c0-1.08.19-1.51.67-1.51a1,1,0,0,1,.91.6,1.69,1.69,0,0,0,.91.87c.52.2.56.13.17-.3s-.35-.71,0-1,.3-.76-.09-1.36-.42-1-.26-1.19c.46-.46,1.6.69,1.6,1.6,0,.43.21.82.44.82.56,0,.49-.69-.3-2.9Zm-6.1.3c-.57,0-.95-.5-.7-.9s1-.09,1,.51a.35.35,0,0,1-.34.39ZM373,16.43c-.48,0-.87-.19-.87-.43s.39-.43.87-.43.86.19.86.43-.39.43-.86.43Zm-21.62,3.2c-.59-.59.6-1.69,1.34-1.24.32.2.26.51-.22,1s-.83.56-1.12.26Zm-14.58-3.27c-2.24.09-3.31.73-2.29,1.38.52.34.41.42-.5.42a1.49,1.49,0,0,1-1.38-.65c-.13-.34,0-.65.2-.65a2.25,2.25,0,0,0,1.08-.64,4.43,4.43,0,0,1,2.76-.65c2.73,0,2.84.69.13.79ZM329.12,16c-.35,0-.65-.2-.65-.43s.3-.44.65-.44.65.21.65.44-.31.43-.65.43Zm-12.91,9.6c-.63.82-1.58,1-1.58.35,0-.5-1.9-.39-2.42.13a3.65,3.65,0,0,1-3-.11,3,3,0,0,0-1.25-.54c-.64-.13-.39-.33.95-.76s2-.46,2.42-.08,1.51.41,4.5-.19c1.12-.23,1.24.11.41,1.2Zm-11.31.34c-.52.42-.78.42-1.3,0-1-.82-.77-1.22.65-1.17s1.62.39.65,1.18Zm-5,0c-2,0-2.19-.61-.34-1.25,1-.35,1.54-.35,1.94,0,.91.76.26,1.27-1.6,1.27Zm.16,3.3a6.9,6.9,0,0,0-1.78.18.68.68,0,0,1-.8-.35c-.15-.39.35-.54,1.78-.54,1.08,0,2,.17,2,.37s-.55.36-1.19.34ZM285.87,15.57c-1.12,0-1.77-.64-1.08-1.07s2.65.21,2.36.68a1.81,1.81,0,0,1-1.28.39Zm-1.64,11.72c-.35-.36-.15-.47.8-.46,1.13,0,1.18.08.48.48s-.94.31-1.28,0Zm-20.54-1.43c-.29.1-.52-.13-.52-.52a.68.68,0,0,1,.69-.69c.79,0,.65.93-.17,1.21Zm-2.85,2.21c-.35.29-.72.34-.87.1s.13-.51.61-.63c1-.27,1.09-.17.26.53Zm-5-13.8a.43.43,0,1,1,.43-.43.4.4,0,0,1-.43.43Zm-3.67.89c-.91.74-4.29.37-4.46-.5-.1-.57.48-.74,3.24-.95,3.51-.27,5.1.06,3,.62a6,6,0,0,0-1.81.83Zm-29.06-1.5c-.43-.42.21-.78.77-.43s.44.39,0,.52a.85.85,0,0,1-.8-.09ZM215,19.46a.8.8,0,0,0-.76.43c-.08.24-.75.55-1.53.71-1.73.34-2-.52-.35-1.15,2.12-.81,3.25-1,3.25-.47,0,.28-.26.48-.61.48Zm-9-6.32a10,10,0,0,1-2.17.27,2,2,0,0,0-1.43.43c-.35.56-1.07.56-1.07,0s1.77-1.4,3.76-1.57,2.56.43.91.87ZM186.27,34.59c-.61,0-.94-.21-.83-.54a.73.73,0,0,1,.7-.49l1.47.1c.77.06.84.16.32.5a3.51,3.51,0,0,1-1.66.43ZM184.64,27c-1,.25-1.89,0-1.42-.37s2.55-.65,2.55-.3-.52.52-1.13.67Zm-12.26-8.41a2.62,2.62,0,0,0-1.62.83c-1.12,1.16-2.49,1.47-3.13.69-.85-1,.15-2,1.71-1.67.69.14,1.33,0,1.5-.23.37-.61,2.39-.65,2.39-.05,0,.25-.37.43-.85.43Zm-14.24,1.95a1.61,1.61,0,0,1-1.07-.73c-.61-1,.11-1.8,1.2-1.39.88.34.77,2.12-.13,2.12Zm-4.46-5.75c-.41-.41-.3-.52.52-.52s.93.11.52.52-.65.39-1,0Zm-2.81-.52c-.86,0-1-.13-.67-.5a1.16,1.16,0,0,1,1.19-.22c1,.39.78.72-.52.72Zm-10.38,5.46a3.23,3.23,0,0,0-1.44.64c-.36.54-2.26-1.3-2-1.95.18-.45.65-.47,2.43-.11,2.46.5,2.81,1,1,1.42ZM136.23,6.92c-.6,0-1-.2-.84-.43a1.38,1.38,0,0,1,1.1-.44c.48,0,.85.19.85.44s-.5.43-1.11.43Zm-1.16,14.14c-.31-.12-.07-.22.54-.22s.84.1.54.22a1.66,1.66,0,0,1-1.08,0ZM122.74,10.77c-1.43,0-1.49-.09-.54-.39,1.56-.5,2.16-.5,2.16,0,0,.24-.71.41-1.62.39Zm-.34-3.85c-.61,0-1-.2-.85-.43a1.39,1.39,0,0,1,1.11-.44c.47,0,.84.19.84.44s-.5.43-1.1.43Zm-2.79,26.16c-3.77,0-5.18-.6-2.17-.92,1.91-.2,6.06.22,6.06.62,0,.17-1.73.3-3.89.3Zm-1.75-25.3a.4.4,0,0,1-.42-.43c0-.25.29-.43.68-.43s.56.18.41.43a.85.85,0,0,1-.67.43ZM93.27,6.92c-.21,0-.5-.3-.62-.65s0-.65.38-.65a.65.65,0,0,1,.63.65c0,.35-.18.65-.39.65Zm-3.2,2.69c-1.29-.11-2-.38-1.9-.7.17-.49,3.55-.45,4.37.05s-.52.83-2.47.65Zm-7.78-.06a11.93,11.93,0,0,1-2.4-.27c-.08-.09.58-.35,1.45-.59A3.67,3.67,0,0,1,84,8.74c1.5.69,1,1-1.69.81ZM64.06,5.62a1.11,1.11,0,0,1-.88-.43c-.14-.23.15-.43.62-.43s.89.2.89.43-.28.43-.63.43ZM61,7.19c-1.86,0-2.55-.48-1.25-1,.82-.32,3.85.23,3.46.62A5.87,5.87,0,0,1,61,7.19Zm-3.22.16a.39.39,0,0,1-.41-.43c0-.25.28-.43.67-.43s.56.18.41.43a.85.85,0,0,1-.67.43Zm-1,1.3a1.16,1.16,0,0,1-.89-.43c-.13-.24.16-.44.63-.44s.89.2.89.44-.28.43-.63.43ZM51.5,4.76c-.69,0-1.08-.24-1.08-.65,0-.7.39-.8,1.47-.39s.82,1-.39,1ZM39.61,36.32c-.56.3-.92.29-1.12,0-.3-.5.56-1.22,1.46-1.23s.61.77-.34,1.27Z"/><path class="cls-1" d="M243.06,35.35c-1.64-.3-2.36-.18-1.86.33a4.34,4.34,0,0,0,1.93.12l1.66-.12-1.73-.33Z"/><path class="cls-1" d="M225.72,33.77c-.51,0-.61.13-.26.26a.89.89,0,0,0,.83,0c.13-.14-.13-.24-.57-.22Z"/><path class="cls-1" d="M209.79,1.73a1.13,1.13,0,0,0-.89.43c-.14.23.15.43.63.43s.89-.2.89-.43-.28-.43-.63-.43Z"/><path class="cls-1" d="M205.66,35.26a.46.46,0,0,0-.65.2c-.14.23,0,.43.39.43.78,0,.88-.25.26-.63Z"/><path class="cls-1" d="M204.69,1.92c-.52.11-1.13.21-1.3.22s-.33.24-.33.5.29.36.76.17a4.71,4.71,0,0,1,1.3-.32c.3,0,.54-.19.54-.39s-.45-.28-1-.18Z"/><path class="cls-1" d="M170.63,35c-.23,0-.43.3-.43.65s.2.64.43.64.44-.3.44-.64-.21-.65-.44-.65Z"/><path class="cls-1" d="M169.94,2.64c-.52,0-.61.12-.26.26a.9.9,0,0,0,.82,0c.14-.13-.13-.23-.56-.21Z"/><path class="cls-1" d="M168.9,34.38c-.24-.15-.43-.07-.43.19a.44.44,0,0,0,.43.46c.26,0,.44-.08.44-.2s-.18-.3-.44-.45Z"/><path class="cls-1" d="M167,35c-.39,0-.67.18-.67.43a.39.39,0,0,0,.41.43.84.84,0,0,0,.67-.43c.15-.25,0-.43-.41-.43Z"/><path class="cls-1" d="M164.15,3.11c-.61,0-.85.1-.54.22a1.66,1.66,0,0,0,1.08,0c.3-.12.06-.22-.54-.22Z"/><path class="cls-1" d="M162.22,2.59a1.12,1.12,0,0,0-.88.44c-.14.23.15.43.62.43s.89-.2.89-.43-.28-.44-.63-.44Z"/><path class="cls-1" d="M161,35.57c-1,.36-1.2.54-.63.66,1,.22,2-.16,2-.73,0-.26-.54-.24-1.41.07Z"/><path class="cls-1" d="M142.27,3.37c-.87.1-1.41.33-1.21.51.42.42,2.76.1,2.76-.38,0-.17-.69-.22-1.55-.13Z"/><path class="cls-1" d="M141.44,34.38c-2.55.46-3.47,1.13-1.08.79a6.52,6.52,0,0,0,2.38-.68c.29-.28-.13-.31-1.3-.11Z"/><path class="cls-1" d="M137.21,35.28c-1.17.35-2.49,1.48-1.73,1.48a1,1,0,0,0,.78-.44,1.38,1.38,0,0,1,1.1-.43c.47,0,.84-.2.84-.45s-.39-.34-1-.16Z"/><path class="cls-1" d="M131.84,35.2c-2.2.31-4.41,1.15-3.71,1.41a2.16,2.16,0,0,0,1.38-.26,4.6,4.6,0,0,1,1.86-.46,3.23,3.23,0,0,0,1.64-.47c.48-.36.18-.41-1.17-.22Z"/><path class="cls-1" d="M125.06,36.43a5,5,0,0,0-2.43.33c0,.33,4.24.25,4.59-.09.14-.14-.82-.25-2.16-.24Z"/><path class="cls-1" d="M107.72,2.68c-.74,0-1,.09-.55.22a2.38,2.38,0,0,0,1.3,0c.31-.13,0-.22-.75-.22Z"/><path class="cls-1" d="M105.16,2.59c-.69,0-3.4,1.45-3,1.6a2.58,2.58,0,0,0,1.56-.49c.56-.37,1.16-.54,1.32-.39s.28,0,.28-.22-.09-.5-.18-.5Z"/><path class="cls-1" d="M98.12,32.71a7.94,7.94,0,0,0-3.25,1.71,4.43,4.43,0,0,1-2.18.82,20.09,20.09,0,0,0-3.53,1c-1.42.58-1.56.74-.86,1a3.54,3.54,0,0,0,3.8-.45,5.23,5.23,0,0,1,2.64-1.1c1.43-.21,1.85-.44,1.67-.91s.15-.7,1.1-.89c.74-.14,1.34-.52,1.34-.84s-.3-.49-.73-.35Z"/><path class="cls-1" d="M83.07,37.73c-.95,0-1.29.1-.76.19a4.75,4.75,0,0,0,1.73,0c.42-.1,0-.18-1-.17Z"/><path class="cls-1" d="M77.62,36.22a1.26,1.26,0,0,0-1.75-.29,3.1,3.1,0,0,1-2.49,0c-1.5-.43-9.3-.34-11.93.13-.72.13-2.32.39-3.57.58a8.55,8.55,0,0,0-2.57.65c-.5.49,2.89.33,6.22-.3,2.94-.55,4.38-.31,2.94.5-.4.22.37.35,2.06.34a10.61,10.61,0,0,0,3.24-.37,20.55,20.55,0,0,1,4.65-.41c2.25,0,4.09-.07,4.06-.09l-.86-.77Zm-10,1c-1.34,0-2.06-.17-1.9-.43a4.3,4.3,0,0,1,2.42-.44c1.34,0,2.07.17,1.9.44a4.4,4.4,0,0,1-2.42.43Z"/><path class="cls-1" d="M52.39,0a2.2,2.2,0,0,0-1.3.69,1.87,1.87,0,0,1-2,.39c-.73-.17-1.3-.11-1.3.13,0,.45,2.82,1,3.59.72A2.9,2.9,0,0,0,52.47.86c.44-.69.42-.86-.08-.86Z"/><path class="cls-1" d="M46.53.22c-.26.15-.44.33-.44.45s.18.19.44.19A.43.43,0,0,0,47,.41c0-.26-.19-.34-.43-.19Z"/><path class="cls-1" d="M44.45,39.46c-5.66-.27-11-.17-11.46.22a12.72,12.72,0,0,1-3,1c-1.34.3-2.37.72-2.25.91.33.54,2.94.47,3.5-.09.41-.41.58-.37.8.19s.48.61,1.13.26a3.51,3.51,0,0,1,2.07-.19c.74.15,1.36.07,1.54-.22a1,1,0,0,1,1.14-.19,1.61,1.61,0,0,0,1.43-.22,8.07,8.07,0,0,1,3.33-.5,21,21,0,0,0,3.52-.22c1.44-.42.7-.81-1.77-.92Z"/><path class="cls-1" d="M28.54,39.39c-.52,0-.62.13-.26.26a.88.88,0,0,0,.82,0c.14-.14-.13-.24-.56-.22Z"/><path class="cls-1" d="M26.2,40.46c-1.34.35-2.17,1-1.25,1a3,3,0,0,0,1.49-.67c.81-.64.8-.66-.24-.38Z"/><path class="cls-1" d="M25.08,38.49c-.35,0-.53.2-.39.43a.45.45,0,0,0,.65.19c.62-.37.52-.62-.26-.62Z"/><path class="cls-1" d="M.26,11.46c-.26-.16-.33,0-.18.39.29.73.61.87.61.26a.81.81,0,0,0-.43-.65Z"/></g></g></svg>