<svg xmlns="http://www.w3.org/2000/svg" width="11.875" height="14.031" viewBox="0 0 11.875 14.031">
  <metadata><?xpacket begin="﻿" id="W5M0MpCehiHzreSzNTczkc9d"?>
<x:xmpmeta xmlns:x="adobe:ns:meta/" x:xmptk="Adobe XMP Core 5.6-c142 79.160924, 2017/07/13-01:06:39        ">
   <rdf:RDF xmlns:rdf="http://www.w3.org/1999/02/22-rdf-syntax-ns#">
      <rdf:Description rdf:about=""/>
   </rdf:RDF>
</x:xmpmeta>
                                                                                                    
                                                                                                    
                                                                                                    
                                                                                                    
                                                                                                    
                                                                                                    
                                                                                                    
                                                                                                    
                                                                                                    
                                                                                                    
                                                                                                    
                                                                                                    
                                                                                                    
                                                                                                    
                                                                                                    
                                                                                                    
                                                                                                    
                                                                                                    
                                                                                                    
                                                                                                    
                           
<?xpacket end="w"?></metadata>
<defs>
    <style>
      .cls-1 {
        fill: #fff;
        fill-rule: evenodd;
      }
    </style>
  </defs>
  <path class="cls-1" d="M187.63,192.761l-5.512-1.652a0.412,0.412,0,0,0-.236,0l-5.512,1.652a0.41,0.41,0,0,0-.293.393v6.056a3.913,3.913,0,0,0,.948,2.4A9.817,9.817,0,0,0,179,203.436a17.712,17.712,0,0,0,2.829,1.655,0.41,0.41,0,0,0,.336,0A17.712,17.712,0,0,0,185,203.436a9.817,9.817,0,0,0,1.978-1.829,3.913,3.913,0,0,0,.948-2.4v-6.056A0.41,0.41,0,0,0,187.63,192.761Z" transform="translate(-176.063 -191.094)"/>
</svg>
