<?xml version="1.0" encoding="UTF-8" standalone="no" ?>
<svg xmlns="http://www.w3.org/2000/svg" viewBox="0 0 512 512" width="512" height="512">
    <filter id="shadow">
        <feDropShadow dx="12" dy="24" stdDeviation="12" />
    </filter>
    <g transform="matrix(0.79602852,0,0,0.83100241,55.547332,44.532584)" id="g3769">
        <path d="m 94.055,21.9 -75.057,75.06 42.727,23.6 -26.98,26.952 107.605,64.878 c -40.443,70.148 -30.72,161.07 29.2,220.958 71.605,71.606 187.737,71.587 259.356,0 71.62,-71.587 71.642,-187.654 0.037,-259.22 C 371.028,114.25 280.047,104.558 209.859,144.951 L 144.95,37.415 l -8.44,8.432 -18.588,18.57 z m 47.224,45.598 62.337,103.275 8.098,-5.248 c 44.21,-28.663 99.014,-34.044 147.166,-16.078 -1.16,-0.026 -2.328,-0.04 -3.503,-0.04 -38.988,0 -70.594,14.807 -70.594,33.073 0,18.27 31.606,33.075 70.594,33.075 31.53,0 58.225,-9.684 67.287,-23.05 15.942,17.34 27.492,37.224 34.65,58.253 -7.76,-3.387 -18.28,-6.706 -30.902,-9.563 -31.383,-7.1 -75.547,-11.615 -124.305,-11.615 -48.757,0 -92.92,4.514 -124.304,11.615 -13.71,3.102 -24.997,6.75 -32.893,10.438 4.34,-12.997 10.343,-25.568 18.018,-37.383 l 5.263,-8.104 -103.33,-62.3 13.894,-13.88 46.937,25.923 27.914,-27.915 -26.18,-46.635 13.855,-13.842 z m -1.087,201.287 c 0.482,0.28 0.982,0.56 1.506,0.84 7.89,4.22 20.41,8.487 36.103,12.037 31.383,7.1 75.547,11.615 124.304,11.615 48.758,0 92.922,-4.514 124.305,-11.615 15.687,-3.55 28.203,-7.813 36.094,-12.033 1.236,5.837 2.153,11.727 2.746,17.643 -9.432,4.277 -21.204,7.893 -35.074,11.032 -33.205,7.513 -78.27,12.037 -128.07,12.037 -49.802,0 -94.866,-4.524 -128.07,-12.037 -14.67,-3.32 -27,-7.17 -36.69,-11.776 0.625,-5.952 1.57,-11.876 2.845,-17.745 z" fill="white" filter="url(#shadow)" />
    </g>
</svg>
