<svg id="Layer_1" data-name="Layer 1" xmlns="http://www.w3.org/2000/svg" viewBox="0 0 239.24 735.04"><defs><style>.cls-1{fill:#5e0000;}</style></defs><title>red_sidebar2</title><path class="cls-1" d="M121,714c17.07,0,29,7.19,31.18,11.72,5.75-.05,10.8-5.62,13.47-13.75,3.63-14.12,16.58-16.3,24.74-11.91,6,3.21,9.18,10.24,5.35,17.07-3.47,6.17-15,5.45-14.68-3.93.14-4.37,4-5.89,7.15-4.34-5.68-7.88-18-1.12-16,10.08,3.4,19,24,20.06,34.36,9a21.33,21.33,0,0,0,4.86-21.45c19.42,8.16,38.57-14.28,22.95-32.41-.5,11-5.51,15.33-11.93,16.51V0H18.55V690.63c-6.42-1.18-11.44-5.49-11.93-16.51C-9,692.25,10.15,714.69,29.56,706.53A21.36,21.36,0,0,0,34.43,728c10.33,11,31,10,34.36-9,2-11.2-10.32-18-16-10.08,3.1-1.55,7,0,7.14,4.34.31,9.38-11.21,10.1-14.68,3.93-3.82-6.83-.61-13.86,5.35-17.07,8.16-4.39,21.11-2.22,24.74,11.91,2.68,8.13,7.72,13.7,13.48,13.75C91,721.19,103.93,714,121,714" transform="translate(-0.88)"/></svg>