<?xml version="1.0" encoding="UTF-8" standalone="no"?>
<svg
   viewBox="0 0 512 512"
   style="height: 512px; width: 512px;"
   version="1.1"
   id="svg6"
   sodipodi:docname="azarketi.svg"
   inkscape:version="1.1.1 (3bf5ae0d25, 2021-09-20)"
   xmlns:inkscape="http://www.inkscape.org/namespaces/inkscape"
   xmlns:sodipodi="http://sodipodi.sourceforge.net/DTD/sodipodi-0.dtd"
   xmlns="http://www.w3.org/2000/svg"
   xmlns:svg="http://www.w3.org/2000/svg">
  <defs
     id="defs10">
    <filter
       style="color-interpolation-filters:sRGB;"
       inkscape:label="Drop Shadow"
       id="filter1258"
       x="-0.059123931"
       y="-0.095108919"
       width="1.1379558"
       height="1.2219208">
      <feFlood
         flood-opacity="0.898039"
         flood-color="rgb(0,0,0)"
         result="flood"
         id="feFlood1248" />
      <feComposite
         in="flood"
         in2="SourceGraphic"
         operator="in"
         result="composite1"
         id="feComposite1250" />
      <feGaussianBlur
         in="composite1"
         stdDeviation="10"
         result="blur"
         id="feGaussianBlur1252" />
      <feOffset
         dx="8"
         dy="8"
         result="offset"
         id="feOffset1254" />
      <feComposite
         in="SourceGraphic"
         in2="offset"
         operator="over"
         result="composite2"
         id="feComposite1256" />
    </filter>
  </defs>
  <sodipodi:namedview
     id="namedview8"
     pagecolor="#ffffff"
     bordercolor="#666666"
     borderopacity="1.0"
     inkscape:pageshadow="2"
     inkscape:pageopacity="0.0"
     inkscape:pagecheckerboard="true"
     showgrid="false"
     inkscape:zoom="1.7050781"
     inkscape:cx="256"
     inkscape:cy="256"
     inkscape:window-width="3840"
     inkscape:window-height="2089"
     inkscape:window-x="-8"
     inkscape:window-y="-8"
     inkscape:window-maximized="1"
     inkscape:current-layer="svg6" />
  <g
     class=""
     transform="matrix(1.2051616,0,0,1.2051616,-29.250285,49.094229)"
     id="g4"
     style="fill:#ffffff;filter:url(#filter1258)">
    <path
       id="path2"
       d="m 77.473549,223.38523 c 15.5615,18.86868 26.753521,10.03754 37.689661,5.21559 l 40.6771,32.14519 c 7.05425,2.82569 13.44707,5.83301 19.76231,8.68468 -7.95164,3.80264 -15.43369,7.27595 -21.35483,9.23366 -18.874,-10.15328 -35.46655,-30.12414 -58.074501,-35.52003 -10.92096,9.74166 -17.12096,14.99439 -36.22176,29.36994 25.22417,5.04846 30.0692,1.24662 39.61576,-10.28851 l 49.302321,36.48987 c 20.31772,1.22267 59.03114,-3.38492 81.81348,-11.2771 47.09078,5.62038 64.38242,0.71038 79.14138,-11.11089 14.08416,4.20551 28.90072,9.22648 44.68508,12.39518 l 2.06731,0.4153 2.03638,-0.54711 c 20.22851,-5.4268 45.35627,-18.58937 60.81899,-30.46159 l -10.9616,-14.27995 c -12.3935,9.51618 -36.15746,21.86457 -52.62107,26.69837 -10.62357,-2.28144 -21.265,-5.56393 -32.03187,-8.83916 -3.05611,0.52302 -6.17538,0.56316 -9.24394,0.11897 -14.91857,-2.11228 -25.78578,-14.47173 -29.80147,-29.56234 -17.27496,5.56511 -33.77507,12.74613 -55.47048,16.87568 -15.56309,-6.11593 -40.28309,-3.13564 -60.00512,-4.20607 -17.44689,-15.99312 -30.91021,-20.45795 -49.01958,-35.0276 -20.763871,7.07608 -21.860611,9.08368 -42.803551,13.47792 z M 304.94508,205.22499 c -0.25186,0.41383 -0.49137,0.83507 -0.71784,1.26333 -1.67069,3.15771 -2.82271,6.99708 -3.1676,11.41445 -1.10112,14.13519 6.80923,24.81407 14.91396,25.96226 8.10473,1.14819 17.48859,-7.07913 18.59021,-21.21519 1.10112,-14.1352 -6.80923,-24.81407 -14.9131,-25.96176 -5.22382,-0.74007 -10.97851,2.41533 -14.70563,8.53691 z m 33.54951,49.35854 c 8.58123,-1.04313 16.97969,-2.76568 24.7928,-4.79039 l 0.75487,-0.19348 0.70981,-0.32343 c 20.05152,-9.10625 27.9264,-14.36194 42.20512,-25.3254 l -10.96051,-14.27585 c -13.80053,10.59522 -19.27206,14.34019 -37.906,22.84112 -2.4056,0.61133 -4.82408,1.17075 -7.25378,1.67791 -2.23986,8.22155 -6.56845,15.37689 -12.34231,20.38952 z M 198.68656,46.570612 c -22.528,0.281 -44.042,31.567 -61.816,32.072 -24.52,-5.482 -41.617999,-31.482 -63.999999,-32 -14.4,1.853 -27.028,6.58 -38.857,13.041 l -0.07,21.596 c 12.759,-8.333 27.222,-16.267 38.927,-16.637 24.52,5.482 41.617999,31.482 63.999999,32 23.32,1.84 45.652,-31.478 64,-32 24.52,5.482 41.618,31.482 64,32 23.32,1.84 45.652,-31.478 64,-32 24.52,5.482 41.618,31.482 64,32 17.604,-1.708 33.913,-9.867 47,-18.18 v -21.53 c -12.258,7.892 -33.21,21.274 -47,21.71 -24.52,-5.482 -41.618,-31.482 -64,-32 -23.32,-1.84 -45.652,31.478 -64,32 -24.52,-5.482 -41.618,-31.482 -64,-32 -0.72653,-0.05718 -1.45528,-0.0812 -2.184,-0.072 z"
       style="fill:#ffffff" />
  </g>
</svg>
