<?xml version="1.0" encoding="UTF-8" standalone="no" ?>
<svg xmlns="http://www.w3.org/2000/svg" viewBox="0 0 512 512" width="512" height="512">
    <filter id="shadow">
        <feDropShadow dx="8" dy="16" stdDeviation="8" />
    </filter>
    <path d="m 425.479,25.666 c 0.695,0.03 1.233,0.235 1.6,0.637 28.156,30.856 23.75,58.537 18.36,87.437 -2.37,4.836 -4.483,8.801 -6.79,12.07 -5.074,7.188 -11.345,12.477 -26.674,20.141 12.826,35.447 0,0 12.826,35.447 22.344,29.793 25.952,62.948 20.375,90.836 -5.578,27.889 -21.494,49.864 -33.201,55.717 -17.61,8.805 -30.338,21.686 -40.338,31.686 -5,5 -9.353,9.287 -12.854,11.965 -0.175,0.133 -0.333,0.24 -0.502,0.365 -0.852,-4.857 -2.097,-9.886 -3.67,-15.076 -5.313,-17.534 -14.622,-37.068 -26.894,-57.522 l -15.434,9.262 c 11.728,19.546 20.419,38.012 25.106,53.478 4.687,15.467 4.988,27.718 2.256,34.55 -2.733,6.83 -7.22,10.423 -19.944,10.847 -11.082,0.37 -27.763,-2.992 -49.941,-11.604 48.106,-17.042 36.13,-46.94 34.24,-75.902 -16,32 -32,32 -48,32 -16,0 -32,0 -48,-32 -1.89,28.962 -13.866,58.859 34.24,75.902 -22.178,8.612 -38.86,11.973 -49.941,11.604 -12.724,-0.424 -17.211,-4.017 -19.944,-10.848 -2.732,-6.83 -2.43,-19.082 2.256,-34.549 4.687,-15.466 13.378,-33.932 25.106,-53.478 l -15.434,-9.262 c -12.272,20.454 -21.581,39.988 -26.894,57.522 -1.573,5.19 -2.818,10.22 -3.67,15.076 -0.169,-0.124 -0.327,-0.232 -0.502,-0.365 -3.501,-2.678 -7.854,-6.965 -12.854,-11.965 -10,-10 -22.728,-22.88 -40.338,-31.686 -11.707,-5.853 -27.623,-27.828 -33.2,-55.717 -5.578,-27.888 -1.97,-61.043 20.374,-90.836 12.826,-35.447 0,0 12.826,-35.447 -15.329,-7.664 -21.6,-12.953 -26.673,-20.14 -2.308,-3.27 -4.42,-7.235 -6.791,-12.07 -5.39,-28.9 -9.796,-56.582 18.36,-87.438 0.367,-0.402 0.905,-0.607 1.6,-0.637 9.097,-0.394 45.217,28.95 79.051,35.594 19.651,-6.115 40.847,-10.22 63.332,-12.094 l 4.448,15.568 c -13.92,1.875 -28.343,5.444 -44.198,10.729 l 5.692,17.074 c 16.147,-5.382 30.123,-8.91 43.425,-10.584 l 4.463,15.62 c -6.012,0.517 -11.858,1.388 -17.295,2.667 -9.38,2.207 -17.681,5.276 -23.802,11.397 l 12.726,12.726 c 1.88,-1.879 7.578,-4.81 15.198,-6.603 5.387,-1.268 11.681,-2.114 18.226,-2.506 L 256,144 l 8.213,-28.746 c 6.545,0.392 12.839,1.238 18.226,2.506 7.62,1.793 13.319,4.724 15.198,6.603 l 12.726,-12.726 c -6.12,-6.121 -14.422,-9.19 -23.802,-11.397 -5.437,-1.279 -11.283,-2.15 -17.295,-2.668 l 4.463,-15.619 c 13.302,1.673 27.278,5.202 43.425,10.584 l 5.692,-17.074 C 306.991,70.178 292.568,66.609 278.648,64.734 l 4.448,-15.568 c 22.485,1.873 43.68,5.98 63.332,12.094 33.834,-6.643 69.954,-35.988 79.05,-35.594 z m -92.82,109.979 c -40,16 -59.059,23.357 -76.659,23.357 -17.6,0 -36.658,-7.357 -76.658,-23.357 l -6.684,16.71 c 40,16 60.942,24.643 83.342,24.643 22.4,0 43.342,-8.643 83.342,-24.643 z m 43.292,4.33 c -14.39,28.78 -43.976,43.976 -75.976,59.976 l 7.588,15.172 c -4.818,6.521 -8.924,14.296 -11.934,23.482 0,0 -7.629,33.395 -8.506,47.916 l 17.754,2.958 C 304,272 304,256 312.527,244.664 c 5.173,7.024 13.406,11.635 22.694,11.635 15.685,0 28.367,-13.15 28.367,-28.863 0,-9.105 -4.264,-17.342 -10.897,-22.666 12.317,-3.675 24.332,-3.772 31.309,-3.772 v -17.996 c -4.717,0 -12.708,-0.032 -22.129,1.363 12.116,-9.681 22.675,-21.335 30.178,-36.34 z m -239.902,0 -16.098,8.05 c 7.503,15.005 18.062,26.659 30.178,36.34 -9.421,-1.395 -17.412,-1.363 -22.129,-1.363 v 17.996 c 6.977,0 18.992,0.097 31.309,3.772 -6.633,5.324 -10.897,13.561 -10.897,22.666 0,15.712 12.682,28.863 28.367,28.863 9.288,0 17.521,-4.611 22.694,-11.635 C 208,256 208,272 207.123,289.48 l 17.754,-2.958 c -0.877,-14.521 -8.506,-47.916 -8.506,-47.916 -3.01,-9.186 -7.116,-16.96 -11.934,-23.482 l 7.588,-15.172 c -32,-16 -61.586,-31.196 -75.976,-59.976 z m 272.488,49.18 -17.074,5.69 c 3.336,10.009 2.55,18.53 -0.664,27.313 -3.214,8.784 -9.13,17.608 -15.903,26.317 -6.773,8.708 -14.338,17.246 -20.529,26.129 -6.19,8.882 -11.365,18.396 -11.365,29.396 h 17.996 c 0,-5 2.826,-11.486 8.135,-19.104 5.309,-7.617 12.744,-16.08 19.97,-25.37 7.227,-9.292 14.312,-19.468 18.598,-31.184 4.287,-11.716 5.5,-25.196 0.836,-39.188 z m -305.074,0 c -4.664,13.991 -3.45,27.47 0.836,39.187 4.286,11.716 11.37,21.892 18.597,31.183 7.227,9.292 14.662,17.754 19.971,25.371 5.31,7.618 8.135,14.104 8.135,19.104 h 17.996 c 0,-11 -5.174,-20.514 -11.365,-29.396 -6.191,-8.883 -13.756,-17.42 -20.53,-26.13 -6.773,-8.708 -12.688,-17.532 -15.902,-26.316 -3.213,-8.784 -4,-17.304 -0.664,-27.312 z m 231.758,27.413 c 5.708,0 10.369,4.638 10.369,10.868 0,6.229 -4.66,10.865 -10.37,10.865 -5.708,0 -10.368,-4.636 -10.368,-10.865 0,-6.23 4.66,-10.868 10.369,-10.868 z m -158.442,0 c 5.709,0 10.37,4.638 10.37,10.868 0,6.229 -4.661,10.865 -10.37,10.865 -5.708,0 -10.369,-4.636 -10.369,-10.865 0,-6.23 4.66,-10.868 10.37,-10.868 z M 424.998,256 h -17.996 c 0,11.5 -10.11,26.464 -21.834,40.143 -5.862,6.839 -11.89,13.345 -16.754,19.56 -4.864,6.215 -9.412,11.798 -9.412,20.297 h 17.996 c 0,0.5 1.452,-3.918 5.588,-9.203 4.136,-5.285 10.108,-11.779 16.246,-18.94 12.276,-14.321 26.166,-31.358 26.166,-51.857 z m -320,0 H 87.002 c 0,20.5 13.89,37.536 26.166,51.857 6.138,7.161 12.11,13.655 16.246,18.94 4.136,5.285 5.588,9.702 5.588,9.203 h 17.996 c 0,-8.5 -4.548,-14.082 -9.412,-20.297 -4.864,-6.215 -10.892,-12.721 -16.754,-19.56 C 115.108,282.464 104.998,267.501 104.998,256 Z m 201.725,168.805 c 4.823,0.6 9.34,0.83 13.576,0.69 1.80103,-0.0648 3.59764,-0.22028 5.383,-0.466 -2.526,8.899 -6.629,17.366 -12.768,24.733 C 301.151,463.877 282,472.998 256,472.998 c -26,0 -45.151,-9.12 -56.914,-23.236 -6.14,-7.367 -10.242,-15.834 -12.768,-24.733 1.752,0.236 3.54,0.404 5.383,0.465 4.236,0.141 8.753,-0.088 13.576,-0.69 1.86,4.965 4.373,9.518 7.637,13.434 8.237,9.885 21.086,16.764 43.086,16.764 22,0 34.849,-6.88 43.086,-16.764 3.264,-3.916 5.776,-8.47 7.637,-13.433 z" fill="white" filter="url(#shadow)" />
</svg>
