<?xml version="1.0" encoding="UTF-8" standalone="no"?>
<svg
   viewBox="0 0 512 512"
   style="height: 512px; width: 512px;"
   version="1.1"
   id="svg6"
   sodipodi:docname="grippli.svg"
   inkscape:version="1.1.1 (3bf5ae0d25, 2021-09-20)"
   xmlns:inkscape="http://www.inkscape.org/namespaces/inkscape"
   xmlns:sodipodi="http://sodipodi.sourceforge.net/DTD/sodipodi-0.dtd"
   xmlns="http://www.w3.org/2000/svg"
   xmlns:svg="http://www.w3.org/2000/svg">
  <defs
     id="defs10">
    <filter
       style="color-interpolation-filters:sRGB;"
       inkscape:label="Drop Shadow"
       id="filter4805"
       x="-0.083190062"
       y="-0.08490219"
       width="1.1941101"
       height="1.1981051">
      <feFlood
         flood-opacity="0.898039"
         flood-color="rgb(0,0,0)"
         result="flood"
         id="feFlood4795" />
      <feComposite
         in="flood"
         in2="SourceGraphic"
         operator="in"
         result="composite1"
         id="feComposite4797" />
      <feGaussianBlur
         in="composite1"
         stdDeviation="10"
         result="blur"
         id="feGaussianBlur4799" />
      <feOffset
         dx="8"
         dy="8"
         result="offset"
         id="feOffset4801" />
      <feComposite
         in="SourceGraphic"
         in2="offset"
         operator="over"
         result="composite2"
         id="feComposite4803" />
    </filter>
  </defs>
  <sodipodi:namedview
     id="namedview8"
     pagecolor="#ffffff"
     bordercolor="#666666"
     borderopacity="1.0"
     inkscape:pageshadow="2"
     inkscape:pageopacity="0.0"
     inkscape:pagecheckerboard="true"
     showgrid="false"
     inkscape:zoom="1.7050781"
     inkscape:cx="194.41924"
     inkscape:cy="309.95647"
     inkscape:window-width="3840"
     inkscape:window-height="2089"
     inkscape:window-x="-8"
     inkscape:window-y="-8"
     inkscape:window-maximized="1"
     inkscape:current-layer="g4" />
  <g
     class=""
     transform="translate(0,0)"
     style=""
     id="g4">
    <g
       id="g4450"
       style="filter:url(#filter4805)">
      <path
         id="path2"
         style="fill:#ffffff"
         d="m 335.7,88.94 c -4.742,0.194 -9.563,1.486 -14.204,4.165 -38.934,22.48 -89.77,21.953 -127.79,0.002 -6.09,-3.516 -12.285,-4.61 -18.145,-3.892 5.914,7.778 9.438,17.572 9.438,28.09 0,23.15 -17.037,42.83 -39.176,45.095 -12.775,14.92 -21.553,31.807 -24.386,49.983 44.73,-23.79 90.947,-35.572 137.064,-35.508 46.15,0.064 92.197,11.987 136.56,35.62 -2.69,-18.15 -11.216,-35.043 -23.794,-49.92 -0.585,0.026 -1.17,0.048 -1.76,0.048 -24.18,0 -43.447,-20.7 -43.447,-45.318 0,-10.64 3.6,-20.543 9.64,-28.364 z m -194.15,3.216 c -12.67,0 -23.277,10.85 -23.277,25.15 0,14.297 10.608,25.147 23.278,25.147 12.67,0 23.276,-10.85 23.276,-25.148 0,-14.298 -10.606,-25.15 -23.275,-25.15 z m 227.956,0 c -12.67,0 -23.277,10.85 -23.277,25.15 0,14.297 10.607,25.147 23.276,25.147 12.67,0 23.277,-10.85 23.277,-25.148 0,-14.298 -10.608,-25.15 -23.277,-25.15 z M 258.499,195.185 c -46.096,-0.065 -92.3,12.827 -137.574,38.846 0.47,4.387 1.292,8.825 2.494,13.31 v 0.002 c 5.453,20.354 0.593,42.93 -9.484,62.297 139.85459,93.24817 190.65851,71.30199 288.496,-10e-4 -10.064,-19.29 -14.99,-41.736 -9.48,-62.302 1.198,-4.467 2.028,-8.89 2.51,-13.266 -44.85,-25.79 -90.852,-38.82 -136.964,-38.886 z" />
    </g>
  </g>
</svg>
