<?xml version="1.0" encoding="UTF-8" standalone="no"?>
<svg
   viewBox="0 0 512 512"
   style="height: 512px; width: 512px;"
   version="1.1"
   id="svg6"
   sodipodi:docname="halfling.svg"
   inkscape:version="1.1.1 (3bf5ae0d25, 2021-09-20)"
   xmlns:inkscape="http://www.inkscape.org/namespaces/inkscape"
   xmlns:sodipodi="http://sodipodi.sourceforge.net/DTD/sodipodi-0.dtd"
   xmlns="http://www.w3.org/2000/svg"
   xmlns:svg="http://www.w3.org/2000/svg">
  <defs
     id="defs10">
    <filter
       style="color-interpolation-filters:sRGB;"
       inkscape:label="Drop Shadow"
       id="filter809"
       x="-0.15639356"
       y="-0.051401769"
       width="1.3649183"
       height="1.1199375">
      <feFlood
         flood-opacity="0.898039"
         flood-color="rgb(0,0,0)"
         result="flood"
         id="feFlood799" />
      <feComposite
         in="flood"
         in2="SourceGraphic"
         operator="in"
         result="composite1"
         id="feComposite801" />
      <feGaussianBlur
         in="composite1"
         stdDeviation="10"
         result="blur"
         id="feGaussianBlur803" />
      <feOffset
         dx="8"
         dy="8"
         result="offset"
         id="feOffset805" />
      <feComposite
         in="SourceGraphic"
         in2="offset"
         operator="over"
         result="composite2"
         id="feComposite807" />
    </filter>
    <filter
       style="color-interpolation-filters:sRGB;"
       inkscape:label="Drop Shadow"
       id="filter821"
       x="-0.12215543"
       y="-0.051458506"
       width="1.2850293"
       height="1.1200698">
      <feFlood
         flood-opacity="0.898039"
         flood-color="rgb(0,0,0)"
         result="flood"
         id="feFlood811" />
      <feComposite
         in="flood"
         in2="SourceGraphic"
         operator="in"
         result="composite1"
         id="feComposite813" />
      <feGaussianBlur
         in="composite1"
         stdDeviation="10"
         result="blur"
         id="feGaussianBlur815" />
      <feOffset
         dx="8"
         dy="8"
         result="offset"
         id="feOffset817" />
      <feComposite
         in="SourceGraphic"
         in2="offset"
         operator="over"
         result="composite2"
         id="feComposite819" />
    </filter>
  </defs>
  <sodipodi:namedview
     id="namedview8"
     pagecolor="#ffffff"
     bordercolor="#666666"
     borderopacity="1.0"
     inkscape:pageshadow="2"
     inkscape:pageopacity="0.0"
     inkscape:pagecheckerboard="true"
     showgrid="false"
     inkscape:zoom="1.8369141"
     inkscape:cx="297.50984"
     inkscape:cy="449.395"
     inkscape:window-width="3840"
     inkscape:window-height="2089"
     inkscape:window-x="-8"
     inkscape:window-y="-8"
     inkscape:window-maximized="1"
     inkscape:current-layer="svg6" />
  <g
     class=""
     transform="matrix(0.5,0,0,0.5,73.33725,244.0003)"
     id="g4"
     style="filter:url(#filter821)">
    <path
       d="m 141.557,22.803 c -23.366,3.035 -44.553,30.444 -44.553,65.935 0,19.558 6.771,36.856 16.695,48.815 l 11.84,14.263 -18.217,3.424 c -12.9,2.425 -22.358,9.24 -30.443,20.336 -8.085,11.097 -14.266,26.558 -18.598,44.375 -7.843,32.28 -9.568,71.693 -9.842,106.436 h 42.868 l 11.771,157.836 c 29.894,6.748 61.811,6.51 90.602,0.025 l 10.414,-157.861 h 40.816 c -0.027,-35.168 -0.477,-75.125 -7.584,-107.65 -3.918,-17.933 -9.858,-33.371 -18.04,-44.342 -8.185,-10.97 -18.08,-17.745 -32.563,-19.989 l -18.592,-2.88 11.736,-14.704 c 9.495,-11.897 15.932,-28.997 15.932,-48.082 0,-37.838 -23.655,-65.844 -49.399,-65.844 z"
       fill="#ffffff"
       fill-opacity="1"
       id="path2"
       sodipodi:nodetypes="csccccccccccccccccscc" />
  </g>
  <g
     id="g124"
     style="filter:url(#filter809)">
    <path
       d="M 384,22.545 307.271,99.27 332.729,124.728 366,91.457 V 420.543 L 332.729,387.271 307.271,412.729 384,489.455 460.729,412.729 435.271,387.271 402,420.543 V 91.457 l 33.271,33.272 25.459,-25.459 z"
       fill="#ffffff"
       fill-opacity="1"
       id="path122"
       sodipodi:nodetypes="ccccccccccccccc" />
  </g>
</svg>
