<?xml version="1.0" encoding="UTF-8" standalone="no" ?>
<svg xmlns="http://www.w3.org/2000/svg" viewBox="0 0 512 512" width="512" height="512">
    <filter id="shadow">
        <feDropShadow dx="8" dy="16" stdDeviation="8" />
    </filter>
    <path d="M 243.5625 38 C 238.9895 38.03 234.55025 38.15825 230.28125 38.40625 C 170.26125 41.89425 139.44425 64.10625 128.28125 86.15625 C 117.32125 107.80825 123.69795 129.89975 142.50195 141.84375 C 167.10895 146.70875 185.7487 155.23975 199.0957 165.59375 C 215.7507 154.31075 235.82425 147.6875 257.40625 147.6875 C 257.75125 147.6875 258.0955 147.6835 258.4375 147.6875 C 258.5655 122.5875 251.1977 97.8355 232.0957 79.4375 L 245.06445 66 C 269.02845 89.083 277.58045 119.6495 277.06445 149.5625 C 298.89045 153.7465 318.3445 164.75325 333.0625 180.28125 C 354.5325 176.04125 381.38875 174.6187 414.34375 177.3457 C 436.87375 171.0017 446.55875 161.21945 449.34375 150.81445 C 452.18575 140.19445 448.07605 125.97425 435.87305 110.65625 C 411.47105 80.02325 356.47375 48.454703 288.84375 40.720703 C 272.35975 38.827703 257.27945 37.914 243.56445 38 L 243.5625 38 z M 133.84375 158.59375 L 134.25 159.40625 C 144.36 180.65625 154.457 195.90955 163.625 206.43555 C 168.833 195.74755 175.8145 186.0835 184.1875 177.8125 C 173.3395 170.3125 157.9845 163.665 136.9375 159.75 L 135.28125 159.4375 L 133.8457 158.59375 L 133.84375 158.59375 z M 94.3125 160.21875 C 91.2655 160.20075 88.108 160.5063 84.875 161.1543 C 71.45 163.8443 56.9405 172.57555 45.3125 187.68555 C 22.0575 217.91155 9.95175 273.887 42.21875 355.625 C 67.00575 418.489 115.3323 458.43075 155.2793 469.84375 C 175.2543 475.54975 192.5393 474.1135 204.2793 466.6875 C 215.7153 459.4545 223.42775 446.2705 223.84375 423.3125 C 208.02375 388.3575 199.25375 359.5563 195.84375 336.0293 C 181.41375 325.4323 169.79375 311.235 162.34375 294.75 C 130.97575 306.522 107.02675 324.16775 97.84375 346.34375 L 80.59375 339.1875 C 92.74675 309.8425 121.0763 289.6175 156.1543 276.8125 C 154.1943 268.8365 153.1543 260.5075 153.1543 251.9375 C 153.1543 243.0445 154.269 234.40225 156.375 226.15625 C 143.8 213.96225 130.9783 195.546 118.2793 169.25 C 111.6433 163.292 103.4525 160.2707 94.3125 160.2207 L 94.3125 160.21875 z M 257.40625 166.37305 C 234.56225 166.37305 213.8845 175.2703 198.5625 189.7793 L 185.9707 204.78125 C 177.0587 218.28925 170.68126 234.52821 171.84375 251.93945 C 174.89864 297.69421 208.14277 325.60898 243.75977 335.95898 C 244.24777 335.96698 256.91625 337.53125 257.40625 337.53125 C 304.77625 337.53125 342.96875 299.32145 342.96875 251.93945 C 342.96875 245.73945 340.47152 230.53094 339.22852 224.71094 C 328.63639 187.60128 290.46025 166.375 257.40625 166.375 L 257.40625 166.37305 z M 380.8125 194.6543 C 379.6575 194.6613 378.506 194.66655 377.375 194.68555 C 365.745 194.88555 355.32925 195.74675 346.03125 197.09375 C 352.56125 207.60375 357.2657 219.3563 359.7207 231.9043 C 373.7757 223.7743 389.37695 212.20975 406.12695 196.34375 L 406.90625 195.62305 C 399.02125 195.09105 391.42645 194.7293 384.31445 194.6543 C 383.12845 194.6423 381.96945 194.6483 380.81445 194.6543 L 380.8125 194.6543 z M 435.31055 206.50195 C 429.24622 206.57425 423.27241 208.06927 417.75 211.00195 C 397.698 229.81895 378.87525 243.21145 361.65625 252.18945 C 361.61325 270.45745 356.833 287.62745 348.5 302.56445 C 368.283 319.25645 385.19025 339.9057 392.40625 365.8457 L 374.40625 370.8457 C 368.77425 350.5957 354.76625 333.2052 337.65625 318.4082 C 325.64125 332.8982 309.79955 344.0802 291.68555 350.4082 C 288.28855 370.7662 279.68575 393.5382 264.21875 418.0332 C 258.33875 440.9332 261.75805 456.3822 269.74805 466.4082 C 277.86805 476.5962 291.85575 482.37166 310.46875 482.22266 C 347.69175 481.92266 400.88305 456.48566 441.24805 401.97266 C 493.63805 331.27666 496.8583 276.14895 482.9043 243.25195 C 472.54267 218.81883 453.50591 206.28787 435.3125 206.50195 L 435.31055 206.50195 z M 219.63672 208.19336 C 233.43373 207.92325 242.09784 224.20351 250.23047 241.67188 C 242.77021 251.63801 234.34453 259.11227 225.53516 263.66406 C 227.2168 261.20018 228.20312 258.22611 228.20312 255.01758 C 228.20312 246.5411 221.33854 239.66406 212.86133 239.66406 C 204.38448 239.66406 197.50781 246.5411 197.50781 255.01758 C 197.50781 261.05063 200.99895 266.26478 206.0625 268.77539 C 194.25303 268.9057 182.51832 263.53786 172.16016 251.6875 C 193.25573 220.01112 208.20431 208.41711 219.63672 208.19336 z M 293.58789 208.19336 C 305.09404 208.02545 320.19676 219.46504 341.65625 251.6875 C 330.7513 264.16277 318.31291 269.46448 305.87305 268.71875 C 310.86615 266.18515 314.29102 261.00135 314.29102 255.01758 C 314.29102 246.5411 307.42606 239.66602 298.94922 239.66602 C 290.47201 239.66602 283.59375 246.5411 283.59375 255.01758 C 283.59375 257.52965 284.20052 259.89452 285.27148 261.98828 C 277.54986 257.37005 270.1829 250.49986 263.57422 241.67188 C 271.59114 224.45317 280.13181 208.38974 293.58789 208.19336 z M 217.28125 348.15625 C 221.40525 366.57825 228.73225 388.67295 240.40625 414.62695 C 242.15325 414.86495 243.89225 415.06995 245.65625 415.25195 C 245.90425 414.21995 246.1595 413.17195 246.4375 412.12695 L 246.8125 410.7207 L 247.5957 409.50195 C 260.4287 389.50195 267.9637 371.3107 271.7207 355.2207 C 267.0357 355.8667 262.26425 356.2207 257.40625 356.2207 C 243.19325 356.2207 229.64125 353.33525 217.28125 348.15625 z" fill="white" filter="url(#shadow)" />
</svg>
