<?xml version="1.0" encoding="UTF-8" standalone="no"?>
<svg
   viewBox="0 0 512 512"
   style="height: 512px; width: 512px;"
   version="1.1"
   id="svg6"
   sodipodi:docname="ratfolk.svg"
   inkscape:version="1.1.1 (3bf5ae0d25, 2021-09-20)"
   xmlns:inkscape="http://www.inkscape.org/namespaces/inkscape"
   xmlns:sodipodi="http://sodipodi.sourceforge.net/DTD/sodipodi-0.dtd"
   xmlns="http://www.w3.org/2000/svg"
   xmlns:svg="http://www.w3.org/2000/svg">
  <defs
     id="defs10">
    <filter
       style="color-interpolation-filters:sRGB;"
       inkscape:label="Drop Shadow"
       id="filter4142"
       x="-0.056955813"
       y="-0.072623915"
       width="1.1328969"
       height="1.1694558">
      <feFlood
         flood-opacity="0.898039"
         flood-color="rgb(0,0,0)"
         result="flood"
         id="feFlood4132" />
      <feComposite
         in="flood"
         in2="SourceGraphic"
         operator="in"
         result="composite1"
         id="feComposite4134" />
      <feGaussianBlur
         in="composite1"
         stdDeviation="10"
         result="blur"
         id="feGaussianBlur4136" />
      <feOffset
         dx="8"
         dy="8"
         result="offset"
         id="feOffset4138" />
      <feComposite
         in="SourceGraphic"
         in2="offset"
         operator="over"
         result="composite2"
         id="feComposite4140" />
    </filter>
  </defs>
  <sodipodi:namedview
     id="namedview8"
     pagecolor="#ffffff"
     bordercolor="#666666"
     borderopacity="1.0"
     inkscape:pageshadow="2"
     inkscape:pageopacity="0.0"
     inkscape:pagecheckerboard="true"
     showgrid="false"
     inkscape:zoom="1.7050781"
     inkscape:cx="171.54639"
     inkscape:cy="256"
     inkscape:window-width="3840"
     inkscape:window-height="2089"
     inkscape:window-x="-8"
     inkscape:window-y="-8"
     inkscape:window-maximized="1"
     inkscape:current-layer="svg6" />
  <path
     d="m 431.2444,101.97801 c -13.4736,0 -23.93546,10.43016 -23.93546,23.47578 0,13.04562 10.46186,23.47578 23.93546,23.47578 13.47361,0 23.93546,-10.43016 23.93546,-23.47578 0,-13.04562 -10.46185,-23.47578 -23.93546,-23.47578 z m -263.92414,43.51182 c 10.46186,25.10846 27.10572,28.5799 49.29754,39.26367 -17.75346,33.25603 -36.77502,80.96844 -68.95315,93.96651 C 45.106745,320.0919 55.358336,320.0022 33.800568,384.04145 194.95724,448.48824 273.47831,435.71336 308.82461,418.45239 341.2232,370.56436 277.15288,353.77376 307.60426,311.5322 c 12.68104,-21.55777 28.0568,-39.62825 42.64,-68.47762 v -0.15851 c -14.90022,-2.06067 -30.75152,-0.15851 -42.95702,2.06067 9.03524,-31.54409 36.77501,-37.61513 61.18601,-25.52059 9.35227,-13.15658 21.24074,-29.848 39.46974,-47.4905 C 387.81184,157.06128 376.3989,139.609 379.25214,118.17804 334.8685,112.7886 288.26568,111.12421 254.66092,133.77572 l -6.34052,-5.89668 c -24.88654,-28.326274 -96.53442,-19.4971 -81.00014,17.61079 z m 107.63032,-6.60999 c 6.34052,12.55423 23.61844,20.52743 46.2858,22.00161 -12.68104,10.28749 -32.81219,18.10218 -48.02944,8.30608 -11.57145,-7.46597 -5.86498,-20.71765 1.74364,-30.30769 z"
     fill="#000000"
     fill-opacity="1"
     id="path2"
     sodipodi:nodetypes="sssssccccccccccccccccccc"
     style="stroke-width:1.58513;fill:#ffffff;filter:url(#filter4142)" />
</svg>
