<?xml version="1.0" encoding="UTF-8" standalone="no"?>
<svg
   viewBox="0 0 512 512"
   style="height: 512px; width: 512px;"
   version="1.1"
   id="svg1"
   sodipodi:docname="samsaran.svg"
   inkscape:version="1.4.2 (ebf0e94, 2025-05-08)"
   xmlns:inkscape="http://www.inkscape.org/namespaces/inkscape"
   xmlns:sodipodi="http://sodipodi.sourceforge.net/DTD/sodipodi-0.dtd"
   xmlns="http://www.w3.org/2000/svg"
   xmlns:svg="http://www.w3.org/2000/svg">
  <defs
     id="defs1">
    <clipPath
       clipPathUnits="userSpaceOnUse"
       id="clipPath54">
      <path
         id="path54"
         style="stroke-width:0.0999999;stroke-linecap:square;paint-order:markers fill stroke;stop-color:#000000"
         d="m 1691.1994,-792.32001 h 1634.8919 v 92.82806 H 1691.1994 Z" />
    </clipPath>
    <clipPath
       clipPathUnits="userSpaceOnUse"
       id="clipPath55">
      <path
         id="path55"
         style="stroke-width:0.1;stroke-linecap:square;paint-order:markers fill stroke;stop-color:#000000"
         d="m 1736.6147,-745.57287 h 1589.4765 v 72.46715 H 1736.6147 Z" />
    </clipPath>
    <filter
       style="color-interpolation-filters:sRGB;"
       inkscape:label="Drop Shadow"
       id="filter5"
       x="-0.097320345"
       y="-0.067599683"
       width="1.2351908"
       height="1.1633659">
      <feFlood
         result="flood"
         in="SourceGraphic"
         flood-opacity="0.898039"
         flood-color="rgb(0,0,0)"
         id="feFlood4" />
      <feGaussianBlur
         result="blur"
         in="SourceGraphic"
         stdDeviation="8.000000"
         id="feGaussianBlur4" />
      <feOffset
         result="offset"
         in="blur"
         dx="8.000000"
         dy="8.000000"
         id="feOffset4" />
      <feComposite
         result="comp1"
         operator="in"
         in="flood"
         in2="offset"
         id="feComposite4" />
      <feComposite
         result="comp2"
         operator="over"
         in="SourceGraphic"
         in2="comp1"
         id="feComposite5" />
    </filter>
    <filter
       style="color-interpolation-filters:sRGB;"
       inkscape:label="Drop Shadow"
       id="filter7"
       x="-0.038627951"
       y="-0.03863473"
       width="1.0933509"
       height="1.0933673">
      <feFlood
         result="flood"
         in="SourceGraphic"
         flood-opacity="0.898039"
         flood-color="rgb(0,0,0)"
         id="feFlood5" />
      <feGaussianBlur
         result="blur"
         in="SourceGraphic"
         stdDeviation="8.000000"
         id="feGaussianBlur5" />
      <feOffset
         result="offset"
         in="blur"
         dx="8.000000"
         dy="8.000000"
         id="feOffset5" />
      <feComposite
         result="comp1"
         operator="in"
         in="flood"
         in2="offset"
         id="feComposite6" />
      <feComposite
         result="comp2"
         operator="over"
         in="SourceGraphic"
         in2="comp1"
         id="feComposite7" />
    </filter>
  </defs>
  <sodipodi:namedview
     id="namedview1"
     pagecolor="#ffffff"
     bordercolor="#111111"
     borderopacity="1"
     inkscape:showpageshadow="0"
     inkscape:pageopacity="0"
     inkscape:pagecheckerboard="1"
     inkscape:deskcolor="#d1d1d1"
     showguides="true"
     inkscape:zoom="0.3257594"
     inkscape:cx="744.41444"
     inkscape:cy="-56.79038"
     inkscape:window-width="2178"
     inkscape:window-height="1211"
     inkscape:window-x="1225"
     inkscape:window-y="618"
     inkscape:window-maximized="0"
     inkscape:current-layer="svg1" />
  <g
     class=""
     transform="translate(0,-1)"
     id="g2"
     style="filter:url(#filter7)">
    <path
       d="m 254.84581,7.5077843 c -75.6,0.42 -150.15,35.1749997 -198.628496,100.6529957 -73.2879,99.12 -62.0518496,234.465 20.895,320.25 l -39.06,52.92 158.728496,-23.835 -23.73,-158.76 -45.36,61.215 c -46.273496,-57.12 -50.053496,-140.28 -4.305,-202.125 32.13,-43.575 81.69,-66.632996 131.985,-66.842996 17.22,-0.105 34.44,2.373 51.135,7.728 l -7.35,-48.783 c -25.095,-5.145 -50.295,-5.25 -74.55,-1.05 -62.265,7.665 -119.7,41.895 -155.578496,95.717996 C 106.48081,75.442784 177.98581,33.442784 253.90081,31.552784 c 1.68,-0.105 3.465,-0.105 5.25,-0.105 15.54,0 31.185,1.68 46.83,5.145 l 51.03,-7.665 c -32.76,-14.595 -67.515,-21.6299997 -102.165,-21.4199997 z m 223.545,23.2049997 -158.76,23.73 23.73,158.612996 43.26,-58.275 c 44.31,56.91 47.355,138.6 2.31,199.5 -42.315,57.12 -114.345,79.065 -178.71,60.48 l 6.825,45.78 c 30.135,5.775 61.11,4.62 90.51,-3.255 39.27,-6.3 76.965,-23.205 108.255,-50.085 -51.555,57.33 -128.73,81.375 -201.285,67.515 l -58.59,8.715 c 103.95,45.885 229.32,15.54 299.775,-79.695 72.555,-98.07 62.37,-231.735 -18.375,-317.582996 z"
       fill="#ffffff"
       fill-opacity="1"
       id="path1"
       sodipodi:nodetypes="ccccccccccccccsccccccccccccccccc"
       style="stroke-width:1.05" />
  </g>
  <g
     class=""
     id="g2-4"
     style="display:inline;filter:url(#filter5)">
    <path
       d="m 255.9694,117.425 c -26.643,0 -51.06,15.2604 -69.15,40.875 -18.0912,25.614 -29.4942,61.446 -29.4942,101.1378 0,39.6912 11.403,75.522 29.4936,101.1372 18.09,25.614 42.507,40.875 69.15,40.875 26.6412,0 51.0402,-15.2604 69.1308,-40.875 18.09,-25.614 29.5122,-61.446 29.5122,-101.1378 0,-39.6912 -11.4222,-75.522 -29.5128,-101.1372 -18.09,-25.614 -42.489,-40.875 -69.1308,-40.875 z m -59.2512,127.0878 c 1.1298,-0.015 2.25,-0.005 3.3756,0.0372 -4.113,3.1644 -6.768,8.1348 -6.768,13.725 0,9.558 7.746,17.3064 17.3052,17.3064 9.5592,0 17.3064,-7.7478 17.3064,-17.3064 0,-2.769 -0.6438,-5.3856 -1.8,-7.7064 7.998,3.396 15.885,8.1684 23.6628,14.175 -22.2402,37.2948 -77.2782,15.0402 -82.3128,-13.5 9.9312,-4.4424 19.6602,-6.606 29.232,-6.7308 z m 118.5372,-3e-4 c 9.5718,0.1248 19.3008,2.2884 29.232,6.7308 -5.0346,28.5402 -60.0726,50.7948 -82.3128,13.5 7.7778,-6.0066 15.6648,-10.779 23.6628,-14.175 -1.1562,2.3208 -1.8,4.9374 -1.8,7.7064 0,9.5586 7.7472,17.3064 17.3064,17.3064 9.5592,0 17.3052,-7.7484 17.3052,-17.3064 0,-5.5902 -2.655,-10.5606 -6.768,-13.725 1.1256,-0.042 2.2458,-0.0522 3.3756,-0.0372 z"
       fill="#ffffff"
       fill-opacity="1"
       id="path61"
       sodipodi:nodetypes="ccscscscccccssscccccccccsssccc"
       style="display:inline;stroke-width:0.6" />
  </g>
</svg>
