<?xml version="1.0" encoding="UTF-8" standalone="no"?>
<svg
   viewBox="0 0 512 512"
   style="height: 512px; width: 512px;"
   version="1.1"
   id="svg6"
   sodipodi:docname="shisk.svg"
   inkscape:version="1.1.1 (3bf5ae0d25, 2021-09-20)"
   xmlns:inkscape="http://www.inkscape.org/namespaces/inkscape"
   xmlns:sodipodi="http://sodipodi.sourceforge.net/DTD/sodipodi-0.dtd"
   xmlns="http://www.w3.org/2000/svg"
   xmlns:svg="http://www.w3.org/2000/svg">
  <defs
     id="defs10">
    <filter
       style="color-interpolation-filters:sRGB;"
       inkscape:label="Drop Shadow"
       id="filter3003"
       x="-0.055848961"
       y="-0.051601849"
       width="1.1303142"
       height="1.1204043">
      <feFlood
         flood-opacity="0.898039"
         flood-color="rgb(0,0,0)"
         result="flood"
         id="feFlood2993" />
      <feComposite
         in="flood"
         in2="SourceGraphic"
         operator="in"
         result="composite1"
         id="feComposite2995" />
      <feGaussianBlur
         in="composite1"
         stdDeviation="10"
         result="blur"
         id="feGaussianBlur2997" />
      <feOffset
         dx="8"
         dy="8"
         result="offset"
         id="feOffset2999" />
      <feComposite
         in="SourceGraphic"
         in2="offset"
         operator="over"
         result="composite2"
         id="feComposite3001" />
    </filter>
  </defs>
  <sodipodi:namedview
     id="namedview8"
     pagecolor="#ffffff"
     bordercolor="#666666"
     borderopacity="1.0"
     inkscape:pageshadow="2"
     inkscape:pageopacity="0.0"
     inkscape:pagecheckerboard="true"
     showgrid="false"
     inkscape:zoom="1.7050781"
     inkscape:cx="380.33448"
     inkscape:cy="201.45704"
     inkscape:window-width="3840"
     inkscape:window-height="2089"
     inkscape:window-x="-8"
     inkscape:window-y="-8"
     inkscape:window-maximized="1"
     inkscape:current-layer="g4" />
  <g
     class=""
     transform="translate(0,0)"
     style=""
     id="g4">
    <path
       id="path2"
       d="M 130.59961,18.900391 C 149.79961,97.700391 274.90039,175 274.90039,175 c 0,0 -120.19992,-52.69922 -248.169921,-52.69922 v 8.29883 c 60.48,2.4 163.769141,20.50039 243.869141,89.90039 -138.3,-0.7 -217.400391,52.19922 -217.400391,52.19922 0,0 169.601561,-46.99922 250.101561,-8.69922 0,0 -126.10039,7.8 -155.90039,142 67.9,-122.1 156.5,-115.40039 156.5,-115.40039 -185.5,67.1 -53.20117,172.40039 -53.20117,172.40039 -18.5,-32 -14.29844,-62.00078 5.10156,-83.30078 -24.2,78.3 53,100.30078 53,100.30078 -20.7,-23 -27.2,-46 -19.5,-69 10.2,69 83.29883,73 83.29883,73 L 341.19922,451 C 388.09922,483 433,477 433,477 l -11.40039,-22 34.80078,19 C 446.80039,402 328.7,416.99922 328.5,346.19922 l 30.21094,-29.61914 c 8.88627,4.75885 17.40446,8.08771 24.46094,9.24804 8.40703,1.4887 16.51146,-0.93996 20.2871,-7.08593 l 0.002,-0.002 v -0.002 c 5.70251,-9.49451 10.35347,-19.07354 14.32617,-28.68359 7.14366,1.15338 10.16921,1.39492 13.42899,-1.07449 5.14444,-3.89833 -2.93226,-24.04775 -2.6482,-37.02084 2.15138,-4.13007 6.84226,-17.2919 6.84226,-20.46913 -6.0285,-0.31644 7.46967,-0.20028 0,0 C 432.37797,155.17557 372.51782,176.61938 367.5,74 c 0,0 -17.20039,46.29922 4.59961,98.69922 -59.8,-46.7 -86.59922,-76.598829 -108.69922,-143.798829 1.4,77.599999 41.69922,125.599609 41.69922,125.599609 0,0 -128.7,-64.599609 -174.5,-135.599609 z m -18,158.400389 c -24.980001,0.1 -53.859688,4.49883 -85.929688,16.29883 v 9.5 c 44.83,-15.4 89.029298,-2.29883 89.029298,-2.29883 -52.930001,12.1 -80.398439,52.79883 -80.398439,52.79883 57.55,-37.3 118.399609,-54.19961 179.099609,-49.59961 0,0 -38.10078,-27.09922 -101.80078,-26.69922 z m 82.30078,97.5 c -78.2,-0.1 -166.291015,37.39844 -166.291015,37.39844 L 115.5,308.09961 l -82.740234,61 v 9.30078 l 84.541014,-43.30078 c 0,0 -24.990702,62.00078 -81.720702,125.30078 C 148.50008,386.00039 112.1,325.89922 214.5,275.69922 c -6.4,-0.6 -12.99961,-0.89844 -19.59961,-0.89844 z"
       sodipodi:nodetypes="cccccccccccccccccccccccccccccccccccccccccccccccccc"
       style="fill:#ffffff;filter:url(#filter3003)" />
  </g>
</svg>
